<?xml version="1.0" standalone="no"?>
<!DOCTYPE svg PUBLIC "-//W3C//DTD SVG 20010904//EN"
 "http://www.w3.org/TR/2001/REC-SVG-20010904/DTD/svg10.dtd">
<svg version="1.0" xmlns="http://www.w3.org/2000/svg"
 width="400.000000pt" height="400.000000pt" viewBox="0 0 400.000000 400.000000"
 preserveAspectRatio="xMidYMid meet">
<metadata>
Created by potrace 1.14, written by Peter Selinger 2001-2017
</metadata>
<g transform="translate(0.000000,400.000000) scale(0.100000,-0.100000)"
fill="#000000" stroke="none">
<path d="M0 2000 l0 -2000 2000 0 2000 0 0 2000 0 2000 -2000 0 -2000 0 0
-2000z m1637 1934 c-3 -3 -12 -4 -19 -1 -8 3 -5 6 6 6 11 1 17 -2 13 -5z m153
-14 c0 -5 -12 -10 -27 -9 -25 0 -26 1 -8 9 27 12 35 12 35 0z m480 -6 c0 -2
-14 -4 -31 -4 -16 0 -28 4 -25 9 5 8 56 3 56 -5z m-730 -64 c0 -5 -5 -10 -11
-10 -5 0 -7 5 -4 10 3 6 8 10 11 10 2 0 4 -4 4 -10z m460 6 c0 -2 -7 -6 -15
-10 -8 -3 -15 -1 -15 4 0 6 7 10 15 10 8 0 15 -2 15 -4z m410 -27 c0 -12 -47
-12 -55 0 -6 11 23 20 43 13 6 -2 12 -8 12 -13z m-376 5 c24 -9 19 -21 -10
-28 -28 -7 -64 0 -64 14 0 5 12 11 28 13 15 2 28 5 29 6 1 0 8 -2 17 -5z m711
-24 c8 -13 -5 -13 -25 0 -13 8 -13 10 2 10 9 0 20 -4 23 -10z m-1465 -45 c-13
-16 -55 -20 -64 -6 -9 14 5 21 42 21 29 0 33 -2 22 -15z m550 1 c0 -19 -43
-29 -55 -12 -5 7 -17 15 -25 19 -8 3 6 6 33 6 34 1 47 -3 47 -13z m427 8 c-3
-3 -12 -4 -19 -1 -8 3 -5 6 6 6 11 1 17 -2 13 -5z m503 -4 c11 -7 12 -12 4
-17 -7 -5 -14 -17 -17 -28 -4 -15 -5 -14 -6 8 0 15 -5 27 -11 27 -5 0 -10 5
-10 10 0 13 21 13 40 0z m-1020 -28 c0 -13 -12 -22 -22 -16 -10 6 -1 24 13 24
5 0 9 -4 9 -8z m550 -12 c0 -5 -7 -7 -15 -4 -8 4 -12 10 -9 15 6 11 24 2 24
-11z m-870 0 c0 -5 -5 -10 -11 -10 -5 0 -7 5 -4 10 3 6 8 10 11 10 2 0 4 -4 4
-10z m1185 0 c3 -5 -1 -10 -9 -10 -9 0 -16 5 -16 10 0 6 4 10 9 10 6 0 13 -4
16 -10z m-375 -20 c0 -5 -4 -10 -9 -10 -6 0 -13 5 -16 10 -3 6 1 10 9 10 9 0
16 -4 16 -10z m-306 -25 c-4 -8 -14 -15 -23 -15 -14 1 -13 3 3 15 25 19 27 19
20 0z m186 -5 c0 -5 -7 -10 -15 -10 -8 0 -15 5 -15 10 0 6 7 10 15 10 8 0 15
-4 15 -10z m305 -20 c3 -5 -1 -10 -10 -10 -9 0 -13 5 -10 10 3 6 8 10 10 10 2
0 7 -4 10 -10z m-995 -9 c0 -5 8 -11 18 -14 16 -4 16 -4 0 -11 -18 -8 -53 16
-41 28 9 9 23 7 23 -3z m1345 -2 c12 -19 -5 -23 -22 -6 -16 16 -16 17 -1 17 9
0 20 -5 23 -11z m-1516 -20 c-16 -10 -23 -4 -14 10 3 6 11 8 17 5 6 -4 5 -9
-3 -15z m421 11 c0 -5 -7 -10 -16 -10 -8 0 -12 5 -9 10 3 6 10 10 16 10 5 0 9
-4 9 -10z m605 -16 c50 -8 140 -32 200 -53 218 -77 204 -70 297 -150 21 -19
49 -36 61 -37 12 -1 25 -3 30 -3 4 -1 7 -10 7 -22 0 -11 24 -49 53 -82 81 -93
130 -163 177 -252 23 -44 46 -84 50 -90 9 -13 76 -202 85 -240 32 -143 30
-170 -16 -282 -17 -42 -3 -87 29 -91 13 -2 22 -10 22 -21 0 -9 21 -42 46 -72
119 -140 141 -166 173 -199 91 -94 109 -144 69 -195 -25 -32 -97 -65 -143 -65
-56 0 -66 -19 -59 -111 l7 -79 -35 -32 c-31 -29 -34 -36 -26 -60 7 -21 5 -36
-8 -60 -56 -107 -56 -105 -52 -175 3 -37 11 -111 18 -163 16 -114 10 -142 -38
-190 -35 -35 -43 -38 -152 -55 -63 -9 -178 -20 -255 -24 -129 -6 -144 -9 -187
-34 -53 -31 -88 -81 -88 -125 0 -38 -9 -64 -21 -56 -17 10 -9 90 14 134 38 76
131 108 326 111 103 1 281 28 321 49 44 22 60 55 60 120 0 37 -4 50 -14 50 -8
0 -18 4 -21 10 -3 5 0 7 8 4 24 -9 26 8 10 76 -21 93 -13 170 27 249 l33 64
-21 18 c-31 24 -27 36 18 59 46 23 51 37 47 133 -2 64 0 70 26 92 15 13 44 27
65 30 75 12 112 26 128 50 14 22 14 27 -1 58 -9 19 -32 49 -51 68 -34 33 -36
33 -49 15 -22 -30 -48 -3 -43 46 2 21 1 39 -2 40 -3 2 -31 35 -62 73 -31 39
-71 84 -88 100 -43 40 -73 101 -67 134 3 14 15 53 27 86 21 57 21 62 6 150
-18 110 -64 249 -113 348 -20 40 -39 74 -42 77 -4 3 -11 16 -17 30 -17 37
-104 141 -114 135 -5 -3 -12 4 -15 15 -9 29 -120 146 -180 190 -59 43 -81 53
-115 54 -15 1 -24 6 -22 14 5 25 -248 117 -256 93 -5 -16 -32 -13 -32 3 0 8
-8 17 -17 20 -40 11 -164 26 -263 31 -57 3 -106 8 -110 12 -9 10 262 -7 355
-23z m310 6 c3 -5 2 -10 -4 -10 -5 0 -13 5 -16 10 -3 6 -2 10 4 10 5 0 13 -4
16 -10z m-1500 -20 c-3 -5 -11 -10 -16 -10 -6 0 -7 5 -4 10 3 6 11 10 16 10 6
0 7 -4 4 -10z m613 -12 c-2 -13 -11 -24 -21 -26 -15 -3 -18 11 -8 46 1 1 8 2
17 2 10 0 14 -7 12 -22z m1242 12 c0 -5 -2 -10 -4 -10 -3 0 -8 5 -11 10 -3 6
-1 10 4 10 6 0 11 -4 11 -10z m-285 -10 c3 -5 2 -10 -4 -10 -5 0 -13 5 -16 10
-3 6 -2 10 4 10 5 0 13 -4 16 -10z m381 -14 c22 -17 11 -35 -13 -20 -19 12
-29 34 -16 34 5 0 18 -6 29 -14z m-874 -31 c61 -8 140 -22 176 -31 35 -9 72
-14 82 -11 11 3 24 -1 31 -9 6 -8 33 -20 59 -28 123 -37 258 -130 353 -244 34
-41 72 -86 85 -101 l23 -26 -16 33 c-9 19 -15 36 -12 38 2 3 14 -17 25 -44 12
-27 32 -54 46 -62 26 -13 35 -45 15 -52 -13 -4 49 -138 67 -145 8 -3 14 -14
14 -24 0 -10 14 -53 31 -96 34 -84 37 -114 14 -149 -8 -13 -15 -36 -15 -52 0
-45 -27 -62 -111 -67 -109 -7 -122 -11 -195 -70 -54 -43 -78 -55 -128 -65
-133 -25 -161 -41 -206 -120 -44 -76 -44 -79 -27 -98 25 -28 21 -42 -14 -42
-26 0 -29 3 -24 21 7 21 5 20 -27 -4 -56 -43 -111 -57 -237 -60 -66 -2 -126
-9 -139 -16 -12 -6 -33 -34 -47 -61 -35 -69 -57 -67 -81 10 -11 35 -11 35 -21
10 -6 -13 -8 -50 -6 -82 3 -52 2 -57 -19 -64 -25 -7 -38 -22 -38 -43 0 -11 5
-10 20 4 12 11 28 15 42 12 25 -7 58 -54 58 -82 0 -9 14 -46 30 -81 61 -126
73 -181 45 -204 -23 -19 -2 -37 22 -20 14 11 16 11 6 1 -9 -11 -8 -19 4 -37
13 -20 13 -31 3 -76 -7 -29 -19 -67 -28 -84 -14 -29 -14 -32 7 -53 17 -17 21
-31 18 -61 -2 -22 -6 -43 -10 -47 -4 -3 -7 -16 -7 -28 0 -25 -55 -70 -72 -59
-7 4 -8 3 -4 -4 4 -7 14 -12 22 -12 26 0 39 -45 24 -89 -13 -39 -9 -71 8 -71
11 0 39 105 47 176 4 26 8 51 10 55 3 3 9 76 14 160 8 143 3 326 -13 459 -15
120 -3 228 35 302 20 39 62 68 99 68 27 0 26 -17 -2 -25 -40 -13 -78 -58 -94
-112 -17 -58 -26 -180 -14 -188 4 -2 5 -16 2 -30 -2 -14 0 -25 6 -25 6 0 12
10 14 21 8 53 88 35 88 -19 0 -22 -7 -31 -35 -44 -28 -12 -35 -13 -35 -2 0 14
-18 29 -27 21 -8 -9 8 -68 17 -62 15 9 23 -38 9 -49 -11 -8 -14 -43 -14 -146
l0 -135 27 0 c37 -1 59 -22 56 -56 -1 -15 -5 -27 -8 -27 -3 0 -9 -1 -15 -2 -5
-2 -23 -3 -40 -4 -29 -1 -30 -2 -41 -81 -20 -139 -52 -277 -86 -374 -44 -125
-66 -132 -27 -9 16 51 29 99 29 106 0 14 -18 6 -59 -26 -20 -16 -21 -21 -11
-39 11 -17 8 -29 -21 -84 -29 -53 -39 -65 -66 -70 -22 -4 -30 -3 -26 4 4 6 0
8 -11 4 -10 -4 -15 -3 -11 4 10 14 -47 -1 -64 -18 -11 -11 -16 -12 -25 -2 -8
8 -8 13 2 16 19 7 14 30 -10 47 -20 14 -21 19 -10 49 14 40 15 47 3 47 -5 0
-17 -25 -26 -55 -19 -59 -39 -85 -56 -68 -6 6 -1 34 15 79 24 68 31 97 60 224
8 36 20 88 26 117 7 29 10 58 7 65 -2 7 -8 0 -11 -17 -4 -16 -12 -39 -17 -50
-7 -16 -9 -14 -6 13 2 18 0 35 -4 38 -7 4 -29 -57 -29 -82 0 -18 -48 -180 -65
-221 -25 -59 -29 -30 -6 39 30 88 38 118 46 158 4 19 9 43 12 54 3 12 1 17 -7
14 -7 -2 -23 -46 -36 -98 -40 -160 -95 -318 -112 -325 -32 -12 -31 14 3 119
36 112 41 136 26 136 -5 0 -12 -21 -16 -47 -3 -27 -13 -59 -21 -73 l-15 -25 5
33 c4 23 2 31 -5 26 -7 -4 -9 -24 -6 -55 8 -66 -22 -113 -76 -117 -22 -2 -46
3 -59 12 -12 9 -29 16 -38 16 -8 0 -32 5 -52 11 -28 7 -38 15 -38 31 0 18 -2
19 -16 7 -15 -12 -16 -11 -9 11 15 51 35 93 41 87 4 -3 1 -20 -5 -38 -13 -39
-6 -53 8 -15 6 14 13 26 17 26 3 0 4 -7 0 -15 -7 -18 15 -20 32 -3 19 19 14
38 -12 38 -13 0 -29 7 -36 15 -21 25 -2 53 48 69 44 15 47 18 48 51 0 23 -4
35 -13 35 -7 0 -13 -8 -13 -17 0 -10 -5 -25 -11 -33 -8 -11 -9 -5 -6 27 3 23
16 56 31 76 26 33 26 35 24 196 -1 89 -6 165 -10 167 -4 3 -8 14 -8 24 0 10
-5 22 -12 26 -8 5 -9 -2 -4 -27 5 -19 8 -47 7 -64 -5 -185 -13 -293 -20 -310
-5 -11 -14 -46 -21 -77 -6 -32 -16 -61 -22 -64 -12 -7 -9 23 12 121 15 69 19
378 7 499 -9 84 -36 158 -87 232 -32 49 -35 54 -21 54 5 0 27 -24 49 -54 33
-43 46 -73 66 -157 14 -57 26 -112 26 -121 0 -10 5 -18 11 -18 12 0 5 62 -18
160 -15 64 -48 138 -68 152 -6 5 -6 8 0 8 5 0 4 5 -3 12 -18 18 -15 24 15 23
58 0 27 22 -75 54 -59 18 -119 38 -134 43 -41 15 -96 76 -140 156 -22 39 -44
72 -50 72 -5 0 -8 6 -5 13 2 6 -1 23 -8 37 -34 70 -76 290 -55 290 6 0 9 -4 6
-9 -11 -17 6 -70 20 -64 8 3 14 1 14 -5 0 -6 -5 -12 -12 -14 -7 -3 -9 -14 -4
-31 4 -18 11 -24 21 -21 9 4 15 0 15 -9 0 -8 -5 -17 -12 -19 -7 -3 -9 -12 -5
-22 4 -9 12 -14 18 -10 13 8 29 -13 29 -39 0 -11 -5 -15 -11 -11 -16 10 -4
-29 34 -106 l32 -64 59 -4 58 -3 -43 53 c-24 29 -46 55 -49 58 -3 3 -10 14
-16 25 -6 11 -17 20 -25 20 -8 0 -14 9 -14 21 0 11 -6 28 -14 37 -14 18 -48
158 -52 217 -1 19 3 60 9 90 6 30 13 78 16 105 2 28 16 93 29 145 18 66 23
100 16 112 -12 22 8 69 21 49 5 -9 9 -8 14 5 4 10 2 20 -4 24 -7 4 -3 16 10
32 24 32 26 48 3 48 -14 0 -15 2 -1 18 9 9 18 24 21 32 4 8 5 4 4 -10 -3 -40
26 -35 81 15 29 26 52 44 52 40 0 -7 168 134 189 159 15 18 51 22 51 6 0 -5
-16 -20 -35 -32 -19 -13 -35 -31 -35 -41 0 -11 -5 -17 -12 -14 -23 8 -65 -21
-117 -80 -52 -58 -61 -77 -38 -86 6 -3 2 -6 -9 -6 -32 -1 -87 -67 -78 -94 6
-19 5 -20 -8 -9 -13 10 -17 9 -21 -10 -4 -12 0 -29 7 -38 17 -20 27 -50 17
-50 -5 0 -12 11 -15 25 -8 32 -19 32 -46 -2 -16 -21 -21 -38 -18 -69 2 -24 -2
-46 -9 -53 -14 -13 -16 -31 -14 -101 4 -116 7 -140 19 -151 14 -15 16 -29 3
-29 -16 0 -32 55 -27 93 9 69 -11 38 -23 -35 -8 -52 -9 -88 -1 -127 5 -29 10
-56 10 -58 0 -2 5 -1 11 3 9 5 10 -1 5 -20 -4 -17 1 -40 15 -69 35 -71 93
-157 106 -157 6 0 25 17 42 37 31 37 35 61 11 55 -10 -2 -9 3 2 20 9 13 22 22
30 21 8 -2 20 13 28 35 8 20 16 40 18 43 1 4 -9 7 -23 7 -21 0 -24 -4 -19 -22
6 -18 5 -19 -10 -7 -34 29 -9 121 34 121 11 0 26 -12 33 -26 l14 -26 12 31
c15 34 80 97 129 123 38 20 40 33 10 49 -13 6 -33 20 -45 31 -21 20 -21 20
-32 0 -9 -17 -89 -72 -105 -72 -16 0 -3 17 22 28 50 23 75 47 68 68 -8 24 -76
99 -96 106 -9 3 -10 7 -3 11 12 8 93 -59 93 -78 0 -7 20 -25 45 -41 25 -15 45
-32 45 -36 0 -4 7 -8 15 -8 20 0 19 17 -2 28 -11 7 -14 15 -8 28 5 11 9 26 10
34 0 8 8 14 18 12 21 -4 23 16 2 24 -8 4 -15 11 -15 18 0 6 -11 27 -24 46 -27
40 -39 85 -40 153 -1 38 -6 52 -25 66 l-23 18 22 -2 c30 -2 37 -18 44 -104 6
-67 18 -108 36 -121 3 -3 16 -21 28 -41 24 -40 61 -54 89 -33 14 10 18 29 20
96 1 46 2 91 2 100 1 19 50 79 51 62 0 -6 -9 -19 -20 -29 -18 -16 -20 -30 -19
-112 1 -71 -3 -99 -15 -118 -22 -34 -20 -38 14 -30 19 4 30 3 30 -4 0 -6 -16
-11 -35 -11 -19 0 -35 -4 -35 -9 0 -5 -8 -7 -19 -4 -23 6 -54 -25 -48 -48 3
-11 0 -19 -6 -19 -7 0 0 -6 15 -14 15 -8 35 -13 45 -11 10 2 23 4 30 4 16 1
44 31 38 41 -3 4 4 6 14 3 17 -4 25 6 36 47 12 42 68 112 119 147 20 13 64 34
98 46 37 13 63 28 63 36 0 22 -56 50 -78 39 -10 -5 -27 -6 -38 -3 -14 5 -20 2
-18 -7 4 -32 -3 -46 -25 -52 -19 -5 -23 -11 -19 -28 5 -21 2 -20 -21 7 -14 17
-25 39 -26 49 0 11 -8 29 -17 40 -18 21 -18 21 5 2 22 -19 22 -19 22 7 0 15 5
27 10 27 6 0 10 -4 10 -10 0 -5 5 -10 10 -10 14 0 12 64 -2 78 -8 8 -8 12 -1
12 12 0 23 -23 23 -51 0 -10 11 -26 25 -35 25 -16 39 -16 103 4 19 6 30 7 27
1 -4 -5 1 -12 9 -15 9 -3 16 -17 16 -30 0 -31 15 -30 105 1 55 20 90 25 162
25 50 0 95 5 98 10 9 14 21 12 39 -6 26 -25 79 -37 89 -19 23 42 109 -4 86
-47 -8 -15 -2 -27 31 -66 38 -43 42 -51 37 -90 -8 -76 -65 -110 -166 -98 -109
12 -106 13 -109 -12 -2 -12 6 -37 17 -56 24 -38 27 -66 8 -66 -17 0 -71 57
-91 98 -19 37 -31 40 -48 12 -7 -11 -16 -20 -19 -20 -11 0 -8 64 3 71 7 4 7 9
-1 13 -6 4 -11 2 -11 -5 0 -7 -13 0 -30 16 l-30 29 -27 -25 -28 -24 23 26 c27
31 27 31 -52 53 -66 19 -145 15 -182 -9 -25 -16 -58 -77 -69 -125 -4 -17 -11
-32 -16 -35 -14 -9 -11 -25 5 -25 19 0 26 -58 9 -76 -11 -10 -12 -29 -7 -76
l7 -63 18 40 c10 22 17 46 14 53 -2 6 0 12 5 12 6 0 10 7 10 15 0 17 17 50 40
79 22 27 79 53 133 61 46 7 47 8 27 22 -12 8 -19 20 -17 26 3 7 -7 26 -22 42
l-26 30 31 -27 c16 -16 40 -28 53 -28 19 0 22 -4 17 -27 -6 -27 -5 -28 66 -45
63 -16 78 -24 115 -63 25 -28 45 -60 49 -80 3 -19 10 -35 14 -35 12 0 90 60
90 69 0 5 13 14 29 19 15 5 68 36 117 69 95 63 130 84 102 60 -25 -20 -22 -25
10 -20 21 4 24 2 12 -6 -8 -6 -22 -11 -31 -11 -9 0 -32 -14 -50 -31 -21 -20
-35 -26 -39 -19 -10 17 -50 -10 -50 -33 0 -39 104 -58 199 -36 47 10 141 51
168 72 52 40 99 98 111 135 23 80 9 100 -39 52 -34 -33 -119 -55 -119 -30 0 7
6 10 14 7 8 -3 20 1 26 8 7 8 16 12 22 9 13 -8 98 59 93 73 -2 7 1 15 7 19 7
4 8 25 4 58 -4 28 -9 68 -11 88 -6 51 -42 154 -71 205 -27 47 -99 110 -120
105 -8 -2 -12 3 -9 10 3 8 -8 21 -25 32 -26 15 -33 16 -47 4 -15 -11 -16 -11
-10 5 7 19 6 20 -17 11 -9 -3 -16 -18 -16 -33 -1 -14 -7 -37 -15 -51 -13 -24
-12 -26 23 -42 19 -10 44 -18 54 -18 9 0 24 -13 33 -30 8 -16 24 -34 34 -40
26 -14 55 -70 36 -70 -8 0 -16 9 -20 20 -3 11 -19 29 -36 40 -16 12 -29 30
-29 40 0 10 -7 21 -16 24 -24 9 -56 7 -50 -3 3 -5 0 -14 -8 -20 -17 -14 -64 1
-72 24 -10 24 -32 17 -49 -15 -9 -17 -27 -35 -40 -40 -14 -5 -25 -14 -25 -20
0 -5 -17 -10 -38 -10 -21 0 -48 -7 -61 -17 -22 -15 -26 -15 -57 2 -26 14 -37
15 -47 6 -16 -13 -25 -5 -46 39 l-12 25 19 -24 c16 -19 24 -22 51 -16 24 5 37
2 50 -9 15 -14 23 -15 45 -5 14 7 26 20 26 31 0 10 5 18 10 18 6 0 10 -7 10
-15 0 -26 30 -30 46 -6 8 11 22 21 29 21 8 0 21 14 30 30 9 17 21 30 28 30 8
0 27 12 44 28 50 45 51 138 1 145 -9 2 -22 8 -29 14 -8 6 -43 18 -79 28 -36 9
-73 21 -82 26 -17 9 -60 21 -151 42 -65 15 -82 4 -81 -54 1 -24 -1 -36 -3 -26
-2 9 -9 17 -14 17 -5 0 -9 6 -9 14 0 37 -129 78 -165 52 -18 -13 -18 -14 0
-52 10 -22 25 -45 34 -52 14 -11 14 -11 -2 -6 -10 4 -24 19 -32 34 -25 48 -67
71 -127 69 -63 -2 -162 -31 -188 -54 -14 -13 -22 -14 -37 -5 -15 10 -27 9 -57
-4 -21 -9 -46 -16 -55 -15 -9 0 -4 5 12 11 15 5 27 14 27 18 0 5 18 15 40 21
22 7 40 16 40 21 0 4 10 8 21 8 18 0 58 9 118 26 11 3 11 7 1 19 -7 8 -9 15
-5 15 4 0 13 -7 19 -15 10 -14 20 -14 100 0 49 8 93 15 99 15 5 0 4 7 -3 15
-11 13 -8 15 15 15 19 0 26 -4 22 -14 -7 -19 22 -26 106 -26 62 0 91 13 50 23
-13 3 -11 6 10 12 33 9 45 1 27 -20 -10 -13 -9 -15 8 -15 11 0 23 6 25 13 4 7
6 6 6 -4 1 -12 15 -19 49 -24 131 -19 283 -69 424 -141 37 -18 74 -31 83 -28
9 4 25 -2 36 -12 18 -16 19 -19 4 -24 -14 -5 -8 -17 33 -65 57 -70 84 -118
107 -198 9 -32 24 -61 35 -67 12 -6 16 -17 13 -30 -3 -11 -9 -17 -14 -14 -5 3
-9 2 -9 -3 0 -14 17 -35 26 -33 16 3 16 -20 0 -26 -9 -3 -16 -15 -16 -26 0
-17 2 -18 15 -8 9 7 18 10 21 7 9 -9 -5 -27 -22 -27 -8 0 -14 -9 -14 -20 0
-13 6 -20 14 -18 8 2 15 0 15 -4 2 -24 0 -30 -13 -25 -10 4 -15 -8 -19 -43
-11 -96 -88 -200 -184 -248 -84 -43 -238 -63 -315 -42 -18 6 -48 10 -65 10
l-33 0 0 -52 c0 -40 -5 -57 -22 -76 l-23 -25 24 13 c14 7 36 23 50 36 71 66
144 -17 91 -103 -28 -47 -86 -81 -157 -92 -63 -10 -91 -7 -132 12 -19 9 -25 8
-36 -6 -17 -24 -38 -22 -30 3 7 23 -10 28 -19 5 -3 -8 -11 -13 -18 -10 -7 2
-22 -10 -34 -28 -11 -18 -27 -31 -35 -29 -17 2 -43 -44 -30 -53 12 -7 81 63
81 81 0 8 5 14 10 14 6 0 10 -5 10 -11 0 -8 39 -10 128 -7 106 3 134 7 168 25
61 32 103 79 134 148 23 51 34 64 76 86 27 15 78 32 114 39 79 16 102 27 164
79 53 43 124 66 187 62 44 -3 61 16 33 36 -12 9 -39 13 -74 11 -51 -3 -55 -1
-58 20 -4 26 14 78 34 102 8 9 11 32 9 55 -5 58 4 84 31 91 27 7 28 8 14 35
-14 25 -3 44 16 28 24 -20 27 -2 6 38 -11 21 -25 49 -31 63 -25 52 -45 87 -80
135 -105 148 -200 231 -340 299 -99 48 -138 57 -127 31 4 -10 -1 -15 -16 -15
-17 0 -18 3 -8 15 17 20 6 32 -36 39 -19 4 -42 10 -50 13 -8 3 -14 -1 -14 -11
0 -18 -8 -20 -30 -6 -10 6 -11 10 -2 10 6 0 12 4 12 8 0 17 -262 51 -389 52
-69 0 -127 3 -130 5 -2 3 40 5 95 5 54 0 106 4 113 9 9 6 22 6 33 0 9 -5 68
-16 130 -24z m-472 -7 c0 -9 -60 -21 -68 -13 -3 3 -1 9 5 13 14 9 63 9 63 0z
m290 -18 c0 -5 -7 -7 -15 -4 -8 4 -15 8 -15 10 0 2 7 4 15 4 8 0 15 -4 15 -10z
m280 -24 c0 -9 -40 -13 -46 -5 -3 5 6 9 20 9 14 0 26 -2 26 -4z m-855 -26 c-3
-5 -13 -10 -21 -10 -8 0 -12 5 -9 10 3 6 13 10 21 10 8 0 12 -4 9 -10z m1609
-6 c11 -28 6 -39 -9 -20 -8 11 -15 23 -15 28 0 14 18 9 24 -8z m-2204 -24 c0
-5 -7 -10 -16 -10 -8 0 -12 5 -9 10 3 6 10 10 16 10 5 0 9 -4 9 -10z m560 1
c0 -5 -6 -14 -14 -20 -16 -13 -32 2 -21 19 8 12 35 13 35 1z m1150 -21 c0 -5
-7 -7 -15 -4 -8 4 -15 8 -15 10 0 2 7 4 15 4 8 0 15 -4 15 -10z m-820 -15 c0
-8 -9 -15 -20 -15 -22 0 -27 15 -7 23 21 9 27 7 27 -8z m100 -29 c0 -17 -7
-26 -25 -30 -14 -4 -30 -4 -35 -1 -6 4 -10 2 -10 -3 0 -15 -32 -24 -44 -12 -8
8 -4 12 12 16 12 4 22 12 22 18 0 20 23 36 52 36 23 0 28 -4 28 -24z m-633
-11 c-7 -16 -37 -21 -37 -5 0 10 32 31 39 25 2 -2 1 -11 -2 -20z m1464 -8
c-13 -13 -26 -3 -16 12 3 6 11 8 17 5 6 -4 6 -10 -1 -17z m-1271 -8 c0 -5 5
-7 12 -3 6 4 3 -5 -8 -19 -10 -15 -22 -27 -26 -27 -10 0 -10 22 -2 44 7 18 24
22 24 5z m175 -18 c-3 -6 -11 -11 -17 -11 -6 0 -6 6 2 15 14 17 26 13 15 -4z
m783 7 c-3 -7 -11 -13 -18 -13 -7 0 -15 6 -17 13 -3 7 4 12 17 12 13 0 20 -5
18 -12z m937 2 c3 -5 1 -10 -4 -10 -6 0 -11 5 -11 10 0 6 2 10 4 10 3 0 8 -4
11 -10z m-2015 -20 c-6 -11 -13 -20 -16 -20 -2 0 0 9 6 20 6 11 13 20 16 20 2
0 0 -9 -6 -20z m610 -14 c0 -3 -40 -1 -48 3 -2 0 0 6 3 11 5 9 45 -3 45 -14z
m-905 -23 c0 -14 -6 -28 -14 -31 -10 -3 -12 0 -8 11 3 9 2 19 -4 22 -12 8 -2
25 15 25 6 0 12 -12 11 -27z m1033 19 c23 9 37 9 56 0 31 -14 33 -35 6 -69
-14 -18 -20 -21 -20 -10 0 11 -9 15 -30 15 -26 -1 -28 -3 -17 -17 6 -9 15 -18
18 -21 12 -10 30 -52 25 -58 -3 -3 -6 0 -6 7 0 7 -7 11 -15 8 -8 -4 -17 -2
-21 4 -3 5 -15 7 -25 4 -18 -6 -19 -5 -7 14 9 15 10 24 3 29 -6 4 -12 18 -13
32 0 14 -4 36 -7 49 -5 20 -4 22 8 13 10 -9 21 -9 45 0z m120 -12 c-15 -23
-28 -26 -28 -7 0 17 10 27 27 27 11 0 11 -4 1 -20z m-1358 0 c0 -5 -5 -10 -11
-10 -5 0 -7 5 -4 10 3 6 8 10 11 10 2 0 4 -4 4 -10z m364 -30 c-10 -16 -20
-28 -22 -26 -4 5 28 56 35 56 2 0 -4 -13 -13 -30z m1981 11 c10 -17 -12 -21
-25 -6 -10 12 -10 15 3 15 9 0 18 -4 22 -9z m-2375 -11 c0 -5 -5 -10 -11 -10
-5 0 -7 5 -4 10 3 6 8 10 11 10 2 0 4 -4 4 -10z m2600 -5 c0 -8 -2 -15 -4 -15
-2 0 -6 7 -10 15 -3 8 -1 15 4 15 6 0 10 -7 10 -15z m-110 -26 c13 -24 13 -29
-3 -29 -19 0 -50 36 -43 49 9 14 34 3 46 -20z m-1275 11 c3 -5 1 -10 -4 -10
-6 0 -11 5 -11 10 0 6 2 10 4 10 3 0 8 -4 11 -10z m165 -26 c0 -14 7 -27 15
-30 8 -4 15 -10 15 -16 0 -5 -4 -6 -10 -3 -6 4 -10 -7 -10 -27 -1 -30 -2 -32
-15 -15 -7 11 -11 26 -8 35 4 10 3 14 -2 10 -10 -9 -35 10 -35 25 0 7 4 7 12
-1 20 -20 26 -14 24 23 -2 19 1 32 5 29 5 -3 9 -16 9 -30z m740 -10 c0 -2 -7
-4 -15 -4 -8 0 -15 4 -15 10 0 5 7 7 15 4 8 -4 15 -8 15 -10z m-2274 -21 c-10
-10 -19 5 -10 18 6 11 8 11 12 0 2 -7 1 -15 -2 -18z m953 -13 c0 -10 -3 -8 -9
5 -12 27 -12 43 0 25 5 -8 9 -22 9 -30z m401 -10 c0 -4 12 -20 26 -35 17 -18
20 -26 9 -21 -9 3 -21 6 -26 6 -5 0 -9 7 -9 15 0 9 -7 18 -16 22 -19 7 -64 47
-64 56 0 4 18 -3 40 -14 22 -12 40 -24 40 -29z m-804 2 c-16 -15 -25 -20 -21
-12 13 25 38 50 44 45 3 -3 -8 -18 -23 -33z m141 16 c-3 -8 -6 -5 -6 6 -1 11
2 17 5 13 3 -3 4 -12 1 -19z m-184 -13 c-3 -9 -8 -14 -10 -11 -3 3 -2 9 2 15
9 16 15 13 8 -4z m1249 -24 c-2 -17 -8 -29 -12 -26 -7 4 -7 35 -1 63 1 2 5 1
9 -2 5 -3 7 -19 4 -35z m-1375 7 c-3 -8 -6 -5 -6 6 -1 11 2 17 5 13 3 -3 4
-12 1 -19z m1310 16 c-3 -3 -12 -4 -19 -1 -8 3 -5 6 6 6 11 1 17 -2 13 -5z
m629 -29 c-8 -23 -25 -9 -19 16 4 13 9 17 16 10 5 -5 7 -17 3 -26z m-1155 5
c11 0 18 -4 15 -8 -3 -5 13 -22 34 -38 22 -16 40 -34 40 -39 0 -18 79 -84 107
-91 19 -5 38 -1 64 14 31 18 54 22 129 22 63 0 100 -5 121 -16 43 -22 125 -30
144 -14 13 10 15 9 15 -7 0 -24 23 -45 68 -63 36 -14 82 -63 82 -87 0 -11 -6
-8 -20 10 -11 14 -44 41 -74 61 -31 20 -58 41 -61 46 -3 6 -25 10 -48 10 -23
1 -60 8 -82 16 -57 22 -231 28 -258 9 -49 -34 -135 -1 -192 74 -16 22 -47 49
-67 61 -21 12 -38 23 -38 25 0 2 -2 9 -3 17 -2 7 -2 10 0 6 3 -5 14 -8 24 -8z
m-36 -30 c-3 -5 -14 -10 -23 -10 -15 0 -15 2 -2 10 20 13 33 13 25 0z m-155
-47 c0 -13 4 -23 9 -23 5 0 11 -7 14 -14 10 -26 -19 -7 -32 20 -14 32 -15 76
-1 54 5 -8 10 -25 10 -37z m464 21 c10 -25 -1 -29 -14 -5 -6 12 -7 21 -1 21 5
0 12 -7 15 -16z m1411 -4 c3 -5 1 -10 -4 -10 -6 0 -11 5 -11 10 0 6 2 10 4 10
3 0 8 -4 11 -10z m-2012 -101 c-3 -9 0 -20 6 -23 16 -10 -15 -98 -41 -117 -22
-17 -38 -16 -38 2 0 5 6 9 14 9 8 0 24 11 34 25 20 25 22 76 7 164 -2 13 -1
29 3 35 8 13 21 -71 15 -95z m1527 91 c0 -5 -4 -10 -9 -10 -6 0 -13 5 -16 10
-3 6 1 10 9 10 9 0 16 -4 16 -10z m-2183 -14 c-5 -15 -57 -15 -57 0 0 8 13 12
30 12 18 -1 29 -6 27 -12z m2588 5 c10 -17 -12 -21 -25 -6 -10 12 -10 15 3 15
9 0 18 -4 22 -9z m-2455 -5 c0 -2 -7 -6 -15 -10 -8 -3 -15 -1 -15 4 0 6 7 10
15 10 8 0 15 -2 15 -4z m1169 -41 c0 -5 -6 -1 -14 9 -8 11 -15 24 -15 30 0 5
7 1 15 -10 8 -10 14 -23 14 -29z m1571 8 c0 -13 -3 -13 -15 -3 -8 7 -15 19
-15 27 0 13 3 13 15 3 8 -7 15 -19 15 -27z m-2250 2 c0 -17 -31 -28 -43 -16
-7 7 -6 15 2 25 14 17 41 11 41 -9z m2135 15 c3 -5 1 -10 -4 -10 -6 0 -11 5
-11 10 0 6 2 10 4 10 3 0 8 -4 11 -10z m-1031 -12 c29 1 51 -6 84 -28 51 -34
64 -36 82 -15 14 17 50 20 50 5 0 -5 -8 -10 -17 -10 -24 0 -53 -29 -46 -47 4
-9 -17 3 -46 25 -29 23 -58 43 -64 44 -7 0 -25 2 -42 3 -16 2 -48 10 -70 19
l-40 17 35 -7 c19 -4 53 -7 74 -6z m456 -4 c0 -17 -22 -14 -28 4 -2 7 3 12 12
12 9 0 16 -7 16 -16z m-1670 -15 c0 -6 -4 -7 -10 -4 -5 3 -10 11 -10 16 0 6 5
7 10 4 6 -3 10 -11 10 -16z m1708 9 c7 -9 5 -19 -8 -35 -21 -27 -30 -29 -30
-7 0 8 5 12 10 9 7 -4 9 2 4 19 -7 28 6 35 24 14z m-1793 -20 c7 -7 2 -8 -15
-3 -14 4 -29 12 -35 17 -7 7 -2 8 15 3 14 -4 30 -12 35 -17z m-110 2 c3 -5 2
-10 -4 -10 -5 0 -13 5 -16 10 -3 6 -2 10 4 10 5 0 13 -4 16 -10z m430 -19 c3
-6 -4 -9 -15 -8 -11 1 -20 5 -20 9 0 11 28 10 35 -1z m1497 -26 c0 -5 -5 -11
-11 -13 -6 -2 -11 4 -11 13 0 9 5 15 11 13 6 -2 11 -8 11 -13z m356 -4 c3 -8
-1 -12 -9 -9 -7 2 -15 10 -17 17 -3 8 1 12 9 9 7 -2 15 -10 17 -17z m-2489
-31 c-24 -42 -38 -50 -17 -9 19 35 29 49 34 49 3 0 -5 -18 -17 -40z m2751 20
c0 -5 -4 -10 -10 -10 -5 0 -10 5 -10 10 0 6 5 10 10 10 6 0 10 -4 10 -10z
m-950 -7 c0 -4 -5 -22 -12 -40 -10 -28 -10 -36 1 -42 10 -6 9 -10 -4 -14 -9
-4 -18 -1 -21 7 -7 19 14 96 26 96 6 0 10 -3 10 -7z m-2258 -25 c-7 -7 -12 -8
-12 -2 0 14 12 26 19 19 2 -3 -1 -11 -7 -17z m781 -44 c-2 -6 3 -17 12 -24 10
-8 15 -9 15 -1 0 12 42 15 53 4 4 -3 1 -13 -5 -21 -10 -11 -8 -17 7 -28 24
-18 8 -18 -25 1 -28 15 -50 4 -50 -25 0 -20 -23 -43 -33 -33 -4 3 -7 16 -7 29
0 15 8 24 25 28 32 8 32 21 -1 42 -18 12 -22 19 -13 25 10 6 9 13 -4 33 -25
38 -20 45 7 11 13 -16 22 -34 19 -41z m-393 52 c0 -2 -8 -10 -17 -17 -16 -13
-17 -12 -4 4 13 16 21 21 21 13z m2209 -14 c6 -12 5 -23 -6 -37 -15 -19 -15
-19 -9 8 5 20 3 27 -9 27 -8 0 -15 5 -15 10 0 17 29 11 39 -8z m-1657 -14 c-7
-7 -12 -8 -12 -2 0 14 12 26 19 19 2 -3 -1 -11 -7 -17z m1868 8 c0 -3 -4 -8
-10 -11 -5 -3 -10 -1 -10 4 0 6 5 11 10 11 6 0 10 -2 10 -4z m-2340 -10 c0 -3
-4 -8 -10 -11 -5 -3 -10 -1 -10 4 0 6 5 11 10 11 6 0 10 -2 10 -4z m1980 0 c0
-2 -8 -10 -17 -17 -16 -13 -17 -12 -4 4 13 16 21 21 21 13z m-2202 -48 c-6
-18 -28 -21 -28 -4 0 9 7 16 16 16 9 0 14 -5 12 -12z m172 -7 c-15 -29 -13
-51 5 -45 11 5 13 2 9 -10 -4 -10 -12 -15 -19 -12 -8 3 -14 -8 -18 -32 -3 -20
-8 -45 -12 -54 -5 -14 -2 -18 14 -18 12 0 21 -4 21 -10 0 -5 -16 -10 -35 -10
-34 0 -35 1 -21 23 8 12 20 51 27 87 12 63 24 100 35 100 2 0 0 -9 -6 -19z
m295 -1 c10 -11 16 -20 13 -20 -3 0 -13 9 -23 20 -10 11 -16 20 -13 20 3 0 13
-9 23 -20z m1695 0 c0 -23 -35 -28 -43 -6 -7 18 1 26 25 26 11 0 18 -7 18 -20z
m835 10 c3 -5 1 -10 -4 -10 -6 0 -11 5 -11 10 0 6 2 10 4 10 3 0 8 -4 11 -10z
m-2910 -41 c-9 -16 -18 -49 -20 -72 -2 -23 -7 -55 -9 -72 -8 -45 -9 -275 -1
-310 13 -60 69 -215 77 -215 4 0 8 -6 8 -13 0 -26 25 -67 38 -62 8 3 10 0 6
-6 -6 -11 1 -32 38 -104 30 -58 55 -90 124 -159 33 -34 66 -75 73 -93 12 -29
16 -31 44 -26 48 10 77 -46 41 -81 -14 -14 -12 -22 18 -83 32 -65 32 -69 31
-192 -2 -110 -23 -260 -49 -343 -8 -26 11 -22 25 5 11 21 11 20 6 -7 -4 -18
-1 -34 10 -46 14 -15 14 -18 0 -30 -8 -7 -26 -10 -39 -8 -21 4 -26 0 -31 -26
-6 -28 -64 -195 -72 -205 -2 -3 -8 0 -14 6 -7 7 -7 16 0 29 16 30 82 240 83
266 1 13 5 28 9 33 4 6 15 53 24 105 13 68 15 95 6 98 -17 6 -13 42 5 49 14 5
15 19 11 91 -7 101 -40 213 -77 262 -15 20 -37 55 -49 79 -13 24 -57 80 -99
125 -42 45 -90 107 -106 139 -15 31 -32 57 -37 57 -5 0 -9 6 -9 13 0 8 -9 24
-20 37 -11 13 -20 32 -20 44 0 12 -16 68 -36 126 l-37 105 0 185 c0 185 13
279 44 316 19 23 20 16 4 -17z m317 -28 c10 -19 25 -31 37 -31 11 0 23 -4 26
-10 3 -6 -4 -10 -16 -10 -25 0 -40 17 -70 75 -22 44 -4 25 23 -24z m1596 -13
c-23 -36 -31 -78 -14 -78 7 0 19 -6 25 -14 18 -21 -14 -44 -40 -28 -16 10 -28
7 -74 -19 -31 -17 -58 -29 -61 -26 -3 3 9 13 28 23 35 17 102 83 94 92 -3 2 4
16 14 30 11 13 20 34 20 45 0 16 3 18 11 10 9 -9 8 -18 -3 -35z m-2388 -12 c0
-13 -7 -29 -15 -36 -13 -11 -15 -7 -15 22 0 19 3 38 6 41 12 11 24 -3 24 -27z
m2311 -16 c5 0 9 -4 9 -8 0 -5 -13 -9 -30 -9 -33 0 -38 8 -15 27 8 7 16 20 16
29 1 9 4 4 6 -11 2 -16 9 -28 14 -28z m1219 41 c0 -5 3 -18 7 -28 6 -16 5 -16
-10 -4 -19 15 -23 41 -7 41 6 0 10 -4 10 -9z m-3406 -26 c-4 -8 -10 -12 -15
-9 -11 6 -2 24 11 24 5 0 7 -7 4 -15z m2340 -21 c21 -8 20 -30 -1 -38 -21 -8
-38 8 -30 28 7 18 9 18 31 10z m-1704 -55 c56 -12 59 -25 4 -20 -19 1 -34 -2
-34 -8 0 -15 -27 -14 -33 2 -4 12 2 37 9 37 1 0 26 -5 54 -11z m95 -9 c-3 -5
-11 -10 -16 -10 -6 0 -7 5 -4 10 3 6 11 10 16 10 6 0 7 -4 4 -10z m55 0 c0 -5
-4 -10 -10 -10 -5 0 -10 5 -10 10 0 6 5 10 10 10 6 0 10 -4 10 -10z m-598 -32
c-15 -15 -26 -4 -18 18 5 13 9 15 18 6 9 -9 9 -15 0 -24z m2278 22 c0 -5 -7
-7 -15 -4 -8 4 -15 8 -15 10 0 2 7 4 15 4 8 0 15 -4 15 -10z m491 -8 c-7 -2
-18 1 -23 6 -8 8 -4 9 13 5 13 -4 18 -8 10 -11z m137 -18 c-10 -10 -28 6 -28
24 0 15 1 15 17 -1 9 -9 14 -19 11 -23z m352 -27 c0 -20 -25 1 -28 24 -2 23
-2 23 13 5 8 -11 15 -24 15 -29z m-2773 1 c-4 -25 1 -43 20 -70 14 -21 30 -39
34 -39 5 -1 13 -2 18 -3 20 -2 71 -47 66 -57 -4 -5 -15 1 -25 13 -23 28 -94
29 -116 1 -13 -17 -13 -17 -14 0 0 9 -4 17 -10 17 -5 0 -7 6 -4 14 4 11 12 13
31 5 13 -5 26 -9 29 -9 11 0 1 25 -22 56 -21 27 -25 40 -20 69 9 44 20 46 13
3z m1564 22 c5 0 9 -5 9 -11 0 -6 -8 -8 -19 -4 -11 3 -22 1 -26 -5 -3 -6 -11
-8 -16 -4 -15 9 11 36 28 29 8 -3 19 -5 24 -5z m-2090 -33 c-8 -8 -11 -7 -11
4 0 20 13 34 18 19 3 -7 -1 -17 -7 -23z m2859 13 c0 -11 -2 -20 -5 -20 -2 0
-9 9 -15 20 -9 16 -8 20 5 20 8 0 15 -9 15 -20z m-1972 -9 c3 -8 -1 -12 -9 -9
-7 2 -15 10 -17 17 -3 8 1 12 9 9 7 -2 15 -10 17 -17z m-1033 -39 c-6 -14 -8
-15 -13 -2 -3 8 -9 18 -15 21 -5 4 -6 12 -3 18 11 18 39 -16 31 -37z m2290 -2
c-9 -18 -31 -38 -51 -46 -19 -8 -37 -21 -41 -29 -3 -8 -15 -15 -27 -14 -12 0
-15 3 -8 6 8 3 22 19 33 37 10 17 19 25 19 18 0 -9 7 -9 30 3 17 9 30 23 30
33 0 21 23 48 28 33 2 -5 -4 -24 -13 -41z m995 35 c0 -8 -4 -15 -10 -15 -5 0
-10 7 -10 15 0 8 5 15 10 15 6 0 10 -7 10 -15z m-3380 -5 c0 -5 -5 -10 -11
-10 -5 0 -7 5 -4 10 3 6 8 10 11 10 2 0 4 -4 4 -10z m520 -21 c0 -6 -4 -7 -10
-4 -5 3 -10 11 -10 16 0 6 5 7 10 4 6 -3 10 -11 10 -16z m217 -39 c1 -11 -2
-18 -8 -15 -11 7 -12 35 -1 35 4 0 8 -9 9 -20z m2716 0 c-3 -11 -9 -20 -14
-20 -14 0 -11 28 4 33 6 3 13 6 14 6 0 1 -1 -8 -4 -19z m-2943 -21 c0 -11 -4
-18 -10 -14 -5 3 -7 12 -3 20 7 21 13 19 13 -6z m195 -29 c3 -5 -1 -10 -9 -10
-8 0 -18 5 -21 10 -3 6 1 10 9 10 8 0 18 -4 21 -10z m-825 -10 c0 -5 -5 -10
-11 -10 -5 0 -7 5 -4 10 3 6 8 10 11 10 2 0 4 -4 4 -10z m2345 0 c-3 -5 -10
-10 -16 -10 -5 0 -9 5 -9 10 0 6 7 10 16 10 8 0 12 -4 9 -10z m1355 -5 c0 -8
-2 -15 -4 -15 -2 0 -6 7 -10 15 -3 8 -1 15 4 15 6 0 10 -7 10 -15z m-350 -71
c0 -16 -16 -19 -25 -4 -8 13 4 32 16 25 5 -4 9 -13 9 -21z m347 -16 c-3 -8 -6
-5 -6 6 -1 11 2 17 5 13 3 -3 4 -12 1 -19z m-3790 -10 c-3 -8 -6 -5 -6 6 -1
11 2 17 5 13 3 -3 4 -12 1 -19z m403 -2 c0 -17 -14 -29 -23 -20 -8 8 3 34 14
34 5 0 9 -6 9 -14z m3085 -16 c-5 -8 -11 -8 -17 -2 -6 6 -7 16 -3 22 5 8 11 8
17 2 6 -6 7 -16 3 -22z m122 8 c-3 -8 -6 -5 -6 6 -1 11 2 17 5 13 3 -3 4 -12
1 -19z m-3311 -25 c-10 -10 -19 5 -10 18 6 11 8 11 12 0 2 -7 1 -15 -2 -18z
m3284 12 c0 -8 -4 -15 -10 -15 -5 0 -10 7 -10 15 0 8 5 15 10 15 6 0 10 -7 10
-15z m-3224 -34 c-9 -13 -46 -15 -46 -1 0 14 34 30 44 20 4 -4 5 -13 2 -19z
m174 9 c0 -11 -7 -20 -15 -20 -17 0 -18 2 -9 24 9 23 24 20 24 -4z m-80 0 c8
-5 11 -10 5 -10 -5 0 -17 5 -25 10 -8 5 -10 10 -5 10 6 0 17 -5 25 -10z m144
-33 c-3 -9 -10 -17 -16 -17 -5 0 -7 -4 -3 -10 3 -5 3 -21 -1 -35 -4 -18 -13
-25 -31 -25 -21 0 -24 4 -21 33 2 21 10 35 25 42 12 5 24 18 27 29 4 15 8 18
16 10 6 -6 8 -18 4 -27z m2240 -26 c-15 -28 -31 -51 -37 -51 -5 0 -3 10 5 23
8 12 23 37 32 55 10 19 20 32 22 29 2 -2 -7 -27 -22 -56z m-2638 2 c-10 -10
-19 5 -10 18 6 11 8 11 12 0 2 -7 1 -15 -2 -18z m3179 18 c3 -5 -1 -16 -9 -23
-8 -8 -16 -23 -18 -34 -2 -13 -12 -19 -28 -19 -22 0 -25 4 -25 35 0 32 2 35
28 32 15 -1 27 2 27 8 0 12 17 13 25 1z m-290 -21 c-3 -5 -11 -10 -16 -10 -6
0 -7 5 -4 10 3 6 11 10 16 10 6 0 7 -4 4 -10z m-3069 -48 c-11 -10 -15 4 -8
28 l7 25 3 -23 c2 -13 1 -26 -2 -30z m160 13 c17 -12 7 -55 -12 -55 -10 0 -14
13 -13 48 0 26 3 40 6 32 4 -8 12 -19 19 -25z m3534 -27 c0 -18 -5 -28 -15
-28 -8 0 -15 9 -15 19 0 11 -4 23 -10 26 -5 3 -10 12 -10 20 0 10 5 11 25 2
18 -9 25 -20 25 -39z m50 32 c0 -5 -4 -10 -10 -10 -5 0 -10 5 -10 10 0 6 5 10
10 10 6 0 10 -4 10 -10z m-1163 -36 c-3 -3 -12 -4 -19 -1 -8 3 -5 6 6 6 11 1
17 -2 13 -5z m169 -9 c12 -8 25 -11 29 -7 5 4 5 -2 0 -13 -4 -11 -10 -30 -12
-43 -7 -30 -16 -34 -49 -22 -21 8 -32 7 -53 -6 -26 -17 -26 -17 -8 3 19 22 22
49 7 58 -14 9 -2 25 14 19 7 -3 19 2 26 11 15 19 20 19 46 0z m-2156 -15 c6
-11 8 -20 6 -20 -3 0 -10 9 -16 20 -6 11 -8 20 -6 20 3 0 10 -9 16 -20z m2445
10 c7 -12 -12 -40 -26 -40 -10 0 -12 34 -2 43 9 10 21 9 28 -3z m-2633 -79
c15 -17 14 -18 -8 -18 -17 0 -24 5 -24 18 0 11 3 19 8 19 4 0 15 -8 24 -19z
m3457 -13 c-1 -31 -1 -31 -8 -8 -5 14 -6 28 -4 33 9 15 13 6 12 -25z m-3619 8
c0 -8 -7 -16 -15 -20 -13 -4 -14 -2 -5 14 13 23 20 26 20 6z m590 -42 c0 -8
-4 -14 -9 -14 -6 0 -9 9 -8 19 1 22 17 18 17 -5z m40 -10 c0 -8 -4 -14 -9 -14
-11 0 -22 26 -14 34 9 9 23 -3 23 -20z m2806 1 c4 -8 3 -27 -1 -43 -6 -25 -8
-25 -19 -9 -14 18 -10 67 5 67 6 0 12 -7 15 -15z m-3018 -11 c5 -9 7 -25 5
-35 -3 -11 0 -19 7 -19 9 0 7 -7 -5 -20 -25 -28 -57 -22 -69 12 -19 54 36 108
62 62z m1932 12 c0 -2 -8 -10 -17 -17 -16 -13 -17 -12 -4 4 13 16 21 21 21 13z
m-2485 -25 c7 -22 -3 -71 -15 -71 -13 0 -18 23 -13 58 6 36 18 42 28 13z
m3015 0 c0 -11 -4 -22 -9 -25 -12 -8 -34 21 -26 34 11 17 35 11 35 -9z m-3056
-6 c-4 -8 -8 -15 -10 -15 -2 0 -4 7 -4 15 0 8 4 15 10 15 5 0 7 -7 4 -15z
m2476 -17 c0 -14 -17 -8 -35 12 -17 19 -17 19 9 7 14 -7 26 -15 26 -19z m170
12 c0 -11 -4 -20 -9 -20 -5 0 -7 9 -4 20 3 11 7 20 9 20 2 0 4 -9 4 -20z
m1065 11 c3 -5 1 -12 -5 -16 -5 -3 -10 1 -10 9 0 18 6 21 15 7z m-888 -16 c-2
-5 -12 -10 -22 -10 -10 0 -20 5 -22 10 -1 6 8 10 22 10 14 0 24 -4 22 -10z
m-2607 -20 c0 -8 -4 -15 -10 -15 -5 0 -10 7 -10 15 0 8 5 15 10 15 6 0 10 -7
10 -15z m70 0 c0 -8 -4 -15 -9 -15 -13 0 -22 16 -14 24 11 11 23 6 23 -9z
m3220 4 c0 -19 -49 -33 -75 -21 -39 18 -30 28 25 29 28 0 50 -3 50 -8z m-1070
-13 c0 -2 -8 -10 -17 -17 -16 -13 -17 -12 -4 4 13 16 21 21 21 13z m100 -27
c0 -4 -7 -6 -15 -3 -8 4 -15 10 -15 15 0 4 7 6 15 3 8 -4 15 -10 15 -15z m240
17 c0 -2 -8 -10 -17 -17 -16 -13 -17 -12 -4 4 13 16 21 21 21 13z m-2110 -21
c7 -8 8 -15 2 -15 -5 0 -15 7 -22 15 -7 8 -8 15 -2 15 5 0 15 -7 22 -15z
m1461 -2 c13 -16 12 -17 -3 -4 -10 7 -18 15 -18 17 0 8 8 3 21 -13z m-1583
-33 c-7 -10 -14 -18 -15 -16 -6 6 9 36 18 36 5 0 4 -9 -3 -20z m3249 -17 c-3
-10 -5 -4 -5 12 0 17 2 24 5 18 2 -7 2 -21 0 -30z m-3617 12 c0 -8 -4 -15 -10
-15 -5 0 -10 7 -10 15 0 8 5 15 10 15 6 0 10 -7 10 -15z m2190 11 c0 -3 -11
-17 -24 -31 -19 -20 -30 -24 -50 -19 -24 6 -24 7 -8 24 9 10 28 20 42 23 14 2
28 5 33 6 4 0 7 -1 7 -3z m-2032 -18 c-6 -18 -28 -21 -28 -4 0 9 7 16 16 16 9
0 14 -5 12 -12z m336 -3 c3 -8 1 -15 -3 -15 -5 0 -11 7 -15 15 -3 8 -1 15 3
15 5 0 11 -7 15 -15z m1524 -1 c13 4 22 1 26 -9 3 -8 12 -15 19 -15 12 0 12
-6 -1 -35 -13 -28 -22 -35 -44 -35 -36 0 -60 33 -47 67 5 14 6 30 2 36 -4 7 0
6 10 -1 9 -8 25 -11 35 -8z m488 -2 c16 -10 26 -60 14 -67 -6 -4 -8 -9 -6 -13
2 -4 -8 -8 -22 -9 -34 -2 -61 22 -55 48 3 10 1 25 -5 32 -8 9 -2 13 26 14 21
2 42 -1 48 -5z m534 -32 c0 -5 -2 -10 -4 -10 -3 0 -8 5 -11 10 -3 6 -1 10 4
10 6 0 11 -4 11 -10z m-245 -30 c0 -22 -29 -18 -33 3 -3 14 1 18 15 15 10 -2
18 -10 18 -18z m-2044 -7 c17 -10 27 -23 24 -31 -3 -8 -5 -18 -5 -23 0 -5 -6
-9 -14 -9 -16 0 -29 27 -20 42 3 5 -2 16 -12 23 -27 20 -8 18 27 -2z m-781
-44 c0 -5 -4 -9 -10 -9 -5 0 -10 7 -10 16 0 8 5 12 10 9 6 -3 10 -10 10 -16z
m-211 -21 c-1 -31 -1 -31 -8 -8 -5 14 -6 28 -4 33 9 15 13 6 12 -25z m3635 17
c-4 -8 -8 -15 -10 -15 -2 0 -4 7 -4 15 0 8 4 15 10 15 5 0 7 -7 4 -15z m-2897
-17 c-3 -8 -6 -5 -6 6 -1 11 2 17 5 13 3 -3 4 -12 1 -19z m2995 0 c-7 -7 -12
-8 -12 -2 0 14 12 26 19 19 2 -3 -1 -11 -7 -17z m-3595 -10 c-3 -8 -6 -5 -6 6
-1 11 2 17 5 13 3 -3 4 -12 1 -19z m321 5 c-4 -22 -22 -20 -26 1 -2 10 3 16
13 16 10 0 15 -7 13 -17z m2932 2 c0 -8 -4 -15 -10 -15 -5 0 -10 7 -10 15 0 8
5 15 10 15 6 0 10 -7 10 -15z m270 11 c0 -3 -4 -8 -10 -11 -5 -3 -10 -1 -10 4
0 6 5 11 10 11 6 0 10 -2 10 -4z m-1314 -34 c-3 -3 0 -12 6 -21 8 -10 4 -9
-10 3 -25 22 -29 38 -7 29 9 -3 13 -8 11 -11z m1004 -2 c0 -11 -4 -20 -10 -20
-5 0 -10 9 -10 20 0 11 5 20 10 20 6 0 10 -9 10 -20z m-3165 -18 c-8 -8 -25
10 -19 20 4 6 9 5 15 -3 4 -7 6 -15 4 -17z m2115 8 c-8 -5 -22 -9 -30 -9 -10
0 -8 3 5 9 27 12 43 12 25 0z m800 0 c0 -5 -2 -10 -4 -10 -3 0 -8 5 -11 10 -3
6 -1 10 4 10 6 0 11 -4 11 -10z m-2525 -20 c0 -7 -6 -15 -12 -17 -8 -3 -13 4
-13 17 0 13 5 20 13 18 6 -3 12 -11 12 -18z m2605 1 c0 -23 -16 -36 -25 -21
-9 14 1 40 15 40 5 0 10 -9 10 -19z m-960 -6 c-7 -9 -15 -13 -17 -11 -7 7 7
26 19 26 6 0 6 -6 -2 -15z m-1880 -21 c0 -8 -9 -14 -19 -14 -22 0 -35 15 -27
29 9 13 46 1 46 -15z m170 6 c0 -11 -4 -20 -9 -20 -14 0 -23 18 -16 30 10 17
25 11 25 -10z m2169 -90 c-6 -41 -15 -83 -20 -95 -7 -15 -8 -12 -4 15 2 19 7
66 11 103 4 40 11 64 16 59 5 -5 4 -39 -3 -82z m-2589 24 c0 -13 -4 -24 -10
-24 -5 0 -10 14 -10 31 0 17 4 28 10 24 6 -3 10 -17 10 -31z m2100 -1 c-11
-17 -11 -17 -6 0 3 10 6 24 7 30 0 9 2 9 5 0 3 -7 0 -20 -6 -30z m1572 -15
c-9 -4 -20 -7 -24 -7 -13 -1 -9 34 4 47 10 10 15 7 24 -10 11 -19 10 -24 -4
-30z m-3502 -4 c0 -8 -5 -12 -10 -9 -6 4 -8 11 -5 16 9 14 15 11 15 -7z m3316
-11 c-10 -10 -19 5 -10 18 6 11 8 11 12 0 2 -7 1 -15 -2 -18z m-1382 -12 c17
-19 17 -19 -2 -14 -12 3 -23 11 -26 19 -8 20 8 17 28 -5z m889 -1 c-5 -19 -23
-39 -23 -25 0 9 20 45 24 45 2 0 2 -9 -1 -20z m-2666 -16 c-9 -9 -28 6 -21 18
4 6 10 6 17 -1 6 -6 8 -13 4 -17z m3013 11 c0 -8 -7 -15 -15 -15 -16 0 -20 12
-8 23 11 12 23 8 23 -8z m410 0 c0 -12 -19 -12 -23 0 -4 9 -1 12 9 8 7 -3 14
-7 14 -8z m-3052 -68 c17 -35 3 -56 -32 -50 -33 7 -50 45 -28 67 23 22 44 16
60 -17z m2310 16 c11 -20 -1 -63 -17 -63 -5 0 -16 -3 -24 -6 -19 -7 -39 46
-25 69 12 22 55 22 66 0z m-587 -30 c13 -16 12 -17 -3 -4 -17 13 -22 21 -14
21 2 0 10 -8 17 -17z m501 -10 c12 -7 -15 -41 -28 -36 -7 2 -26 -3 -43 -11
-46 -24 -51 -19 -6 7 22 13 39 30 39 39 -1 15 12 15 38 1z m624 -10 c-10 -10
-19 5 -10 18 6 11 8 11 12 0 2 -7 1 -15 -2 -18z m-991 -77 c-3 -35 -3 -66 2
-69 4 -3 34 6 67 20 83 35 80 22 -4 -16 -63 -29 -88 -51 -59 -51 5 0 7 -5 3
-12 -6 -9 -9 -9 -12 0 -8 25 -21 10 -53 -58 -38 -84 -51 -87 -16 -4 14 33 23
63 20 67 -3 5 -35 6 -72 3 -44 -4 -58 -3 -41 3 14 5 38 9 53 10 15 1 30 7 33
15 3 8 13 12 26 8 18 -4 20 -2 16 16 -3 12 0 23 7 26 7 2 15 27 19 55 10 74
20 63 11 -13z m-2355 33 c0 -6 -4 -7 -10 -4 -5 3 -10 11 -10 16 0 6 5 7 10 4
6 -3 10 -11 10 -16z m340 7 c0 -3 -4 -8 -10 -11 -5 -3 -10 -1 -10 4 0 6 5 11
10 11 6 0 10 -2 10 -4z m-440 -22 c0 -8 -4 -12 -10 -9 -5 3 -10 10 -10 16 0 5
5 9 10 9 6 0 10 -7 10 -16z m785 -22 c-6 -7 -35 18 -35 31 0 5 9 2 20 -8 11
-10 18 -20 15 -23z m1456 21 c13 -16 12 -17 -3 -4 -10 7 -18 15 -18 17 0 8 8
3 21 -13z m-1991 -19 c0 -8 -4 -14 -10 -14 -5 0 -10 9 -10 21 0 11 5 17 10 14
6 -3 10 -13 10 -21z m2850 1 c0 -8 -7 -15 -15 -15 -16 0 -20 12 -8 23 11 12
23 8 23 -8z m435 -7 c-11 -36 -25 -45 -25 -17 0 27 7 39 22 39 5 0 6 -10 3
-22z m-3405 -29 c0 -6 -4 -7 -10 -4 -5 3 -10 11 -10 16 0 6 5 7 10 4 6 -3 10
-11 10 -16z m3204 6 c-4 -8 -10 -12 -15 -9 -11 6 -2 24 11 24 5 0 7 -7 4 -15z
m-532 -37 c-6 -6 -7 0 -4 19 5 21 7 23 10 9 2 -10 0 -22 -6 -28z m-2562 7 c0
-8 -4 -15 -10 -15 -5 0 -10 7 -10 15 0 8 5 15 10 15 6 0 10 -7 10 -15z m2990
6 c0 -12 -20 -25 -27 -18 -7 7 6 27 18 27 5 0 9 -4 9 -9z m-2797 -62 c-8 -8
-14 -6 -22 9 -13 25 -2 37 18 17 11 -11 12 -18 4 -26z m-519 5 c10 -25 -1 -29
-14 -5 -6 12 -7 21 -1 21 5 0 12 -7 15 -16z m3627 -11 c-8 -15 -10 -15 -11 -2
0 17 10 32 18 25 2 -3 -1 -13 -7 -23z m-3581 7 c0 -5 12 -11 28 -11 21 -1 22
-2 7 -6 -11 -3 -23 -10 -27 -17 -6 -8 -11 -7 -18 4 -13 19 -13 40 0 40 6 0 10
-4 10 -10z m128 -36 c-10 -10 -28 6 -28 24 0 15 1 15 17 -1 9 -9 14 -19 11
-23z m3297 27 c3 -5 1 -12 -5 -16 -5 -3 -10 1 -10 9 0 18 6 21 15 7z m-1160
-11 c-36 -14 -166 -31 -178 -23 -10 7 117 29 178 31 20 1 20 1 0 -8z m-1375
-63 c0 -2 -10 -12 -22 -23 l-23 -19 19 23 c18 21 26 27 26 19z m1978 -29 c2
-19 -3 -30 -18 -38 -44 -23 -68 14 -33 52 23 25 47 19 51 -14z m-2458 8 c0 -2
3 -11 6 -20 4 -11 0 -16 -14 -16 -20 0 -36 23 -25 34 7 7 33 8 33 2z m2724 -5
c3 -5 -1 -14 -9 -21 -13 -10 -15 -9 -15 9 0 21 14 28 24 12z m258 -23 c-7 -7
-12 -8 -12 -2 0 14 12 26 19 19 2 -3 -1 -11 -7 -17z m-2405 -20 c-3 -7 -5 -2
-5 12 0 14 2 19 5 13 2 -7 2 -19 0 -25z m-442 -46 c-3 -3 -11 0 -18 7 -9 10
-8 11 6 5 10 -3 15 -9 12 -12z m-390 -2 c3 -5 1 -10 -4 -10 -6 0 -11 5 -11 10
0 6 2 10 4 10 3 0 8 -4 11 -10z m466 -25 c16 -9 39 -15 52 -14 44 4 67 -1 67
-16 0 -7 8 -19 18 -24 16 -10 16 -10 0 -11 -10 0 -18 -4 -18 -10 0 -20 -37
-10 -49 13 -7 13 -36 35 -64 50 -29 14 -48 26 -44 26 4 1 21 -6 38 -14z m2479
-4 c0 -5 -7 -14 -15 -21 -12 -10 -15 -10 -15 2 0 8 3 18 7 21 9 10 23 9 23 -2z
m-2794 -46 c10 -8 14 -15 7 -15 -19 0 -43 11 -43 21 0 13 14 11 36 -6z m2029
-25 c-9 -17 -14 -37 -12 -44 5 -13 -29 -40 -36 -28 -14 27 -14 39 1 38 9 0 25
15 36 36 25 45 34 43 11 -2z m915 31 c0 -10 -24 -21 -43 -21 -7 0 -3 7 7 15
22 17 36 19 36 6z m-3056 -24 c15 -24 -3 -35 -20 -13 -8 11 -14 24 -14 29 0
13 22 3 34 -16z m3176 -6 c0 -9 -6 -25 -12 -34 -12 -16 -14 -16 -25 2 -9 15
-9 23 3 40 17 23 34 20 34 -8z m-724 -25 c9 -24 -15 -56 -42 -56 -32 0 -41 25
-19 50 21 23 53 26 61 6z m614 4 c0 -5 -4 -10 -10 -10 -5 0 -10 5 -10 10 0 6
5 10 10 10 6 0 10 -4 10 -10z m-2766 -31 c-8 -13 -24 -1 -24 18 0 13 3 13 15
3 8 -7 12 -16 9 -21z m1951 1 c-3 -5 -16 -10 -28 -9 -20 1 -20 2 3 9 14 4 26
8 28 9 2 1 0 -3 -3 -9z m725 -10 c0 -5 -4 -10 -10 -10 -5 0 -10 5 -10 10 0 6
5 10 10 10 6 0 10 -4 10 -10z m-1746 -52 c-23 -76 -34 -101 -41 -95 -8 8 37
147 48 147 4 0 1 -23 -7 -52z m521 32 c0 -22 -29 -18 -33 3 -3 14 1 18 15 15
10 -2 18 -10 18 -18z m371 -37 c-3 -8 -6 -19 -6 -24 0 -16 -43 -28 -62 -17
-23 11 -23 54 -1 66 23 14 76 -6 69 -25z m-1784 -20 c19 -17 24 -43 8 -43 -16
0 -51 40 -45 50 9 14 16 12 37 -7z m1674 2 c-11 -8 -25 -15 -30 -15 -6 0 -2 7
8 15 11 8 25 15 30 15 6 0 2 -7 -8 -15z m824 -6 c0 -14 -10 -24 -28 -31 -17
-7 -33 -23 -40 -40 -11 -30 -52 -41 -52 -14 0 19 27 46 46 46 8 0 14 6 14 14
0 19 27 46 46 46 8 0 14 -9 14 -21z m-342 -54 c-3 -3 -9 2 -12 12 -6 14 -5 15
5 6 7 -7 10 -15 7 -18z m-2268 -25 c0 -5 -2 -10 -4 -10 -3 0 -8 5 -11 10 -3 6
-1 10 4 10 6 0 11 -4 11 -10z m1661 -5 c0 -5 -9 -11 -21 -13 -20 -3 -27 8 -13
22 10 9 34 3 34 -9z m1039 11 c0 -3 -4 -8 -10 -11 -5 -3 -10 -1 -10 4 0 6 5
11 10 11 6 0 10 -2 10 -4z m-2610 -62 c0 -2 -7 -4 -15 -4 -8 0 -15 4 -15 10 0
5 7 7 15 4 8 -4 15 -8 15 -10z m194 -15 c-8 -13 -24 -1 -24 18 0 13 3 13 15 3
8 -7 12 -16 9 -21z m2033 -6 c-9 -9 -19 -14 -23 -11 -10 10 6 28 24 28 15 0
15 -1 -1 -17z m283 -17 c0 -3 -4 -8 -10 -11 -5 -3 -10 -1 -10 4 0 6 5 11 10
11 6 0 10 -2 10 -4z m-1115 -16 c3 -5 1 -10 -4 -10 -6 0 -11 5 -11 10 0 6 2
10 4 10 3 0 8 -4 11 -10z m485 -4 c0 -8 -4 -17 -9 -21 -12 -7 -24 12 -16 25 9
15 25 12 25 -4z m230 -1 c-12 -15 -30 -12 -30 6 0 5 10 9 21 9 18 0 19 -2 9
-15z m562 -17 c-7 -7 -12 -8 -12 -2 0 14 12 26 19 19 2 -3 -1 -11 -7 -17z
m-2502 -18 c0 -5 -2 -10 -4 -10 -3 0 -8 5 -11 10 -3 6 -1 10 4 10 6 0 11 -4
11 -10z m2180 0 c0 -5 -4 -10 -10 -10 -5 0 -10 5 -10 10 0 6 5 10 10 10 6 0
10 -4 10 -10z m-1023 -19 c10 -16 7 -19 -22 -28 -26 -8 -38 -8 -55 4 -17 12
-19 18 -9 29 17 21 72 18 86 -5z m1308 -1 c-3 -5 -11 -10 -16 -10 -6 0 -7 5
-4 10 3 6 11 10 16 10 6 0 7 -4 4 -10z m-1170 -10 c3 -6 -1 -7 -9 -4 -18 7
-21 14 -7 14 6 0 13 -4 16 -10z m75 0 c0 -5 -9 -10 -20 -10 -11 0 -20 5 -20
10 0 6 9 10 20 10 11 0 20 -4 20 -10z m-925 -21 c12 -19 -5 -23 -22 -6 -16 16
-16 17 -1 17 9 0 20 -5 23 -11z m1655 -1 c0 -19 -18 -43 -25 -36 -4 3 -2 16 5
27 12 24 20 27 20 9z m-750 -18 c0 -5 -9 -10 -19 -10 -11 0 -23 5 -26 10 -4 6
5 10 19 10 14 0 26 -4 26 -10z m-1310 -20 c0 -5 -2 -10 -4 -10 -3 0 -8 5 -11
10 -3 6 -1 10 4 10 6 0 11 -4 11 -10z m1490 -16 c0 -17 -10 -17 -47 -3 -19 7
-24 12 -15 18 19 12 62 1 62 -15z m240 17 c0 -12 -20 -25 -27 -18 -7 7 6 27
18 27 5 0 9 -4 9 -9z m370 -1 c0 -5 -4 -10 -10 -10 -5 0 -10 5 -10 10 0 6 5
10 10 10 6 0 10 -4 10 -10z m-1405 -49 c7 -12 -12 -24 -25 -16 -11 7 -4 25 10
25 5 0 11 -4 15 -9z m375 -43 c0 -13 -32 -6 -37 9 -3 7 3 9 16 6 12 -3 21 -10
21 -15z m1033 -15 c-20 -15 -33 -16 -52 -4 -10 7 -8 12 9 24 18 12 26 13 41 4
18 -11 18 -13 2 -24z m-2093 2 c10 -12 10 -15 -3 -15 -8 0 -20 7 -27 15 -10
12 -10 15 3 15 8 0 20 -7 27 -15z m90 5 c0 -5 -4 -10 -10 -10 -5 0 -10 5 -10
10 0 6 5 10 10 10 6 0 10 -4 10 -10z m938 -25 c-5 -21 -2 -25 13 -20 23 7 26
-10 4 -19 -17 -6 -51 22 -49 42 2 21 4 22 20 22 12 0 15 -7 12 -25z m651 4
c-16 -10 -23 -4 -14 10 3 6 11 8 17 5 6 -4 5 -9 -3 -15z m-1489 -19 c0 -5 -2
-10 -4 -10 -3 0 -8 5 -11 10 -3 6 -1 10 4 10 6 0 11 -4 11 -10z m1705 0 c-3
-5 -11 -10 -16 -10 -6 0 -7 5 -4 10 3 6 11 10 16 10 6 0 7 -4 4 -10z m-1195
-10 c0 -5 -7 -10 -15 -10 -8 0 -15 5 -15 10 0 6 7 10 15 10 8 0 15 -4 15 -10z
m-250 -10 c0 -5 -7 -10 -15 -10 -8 0 -15 5 -15 10 0 6 7 10 15 10 8 0 15 -4
15 -10z m1000 -9 c0 -11 -59 -26 -67 -17 -4 3 3 6 15 6 11 0 24 5 27 10 8 13
25 13 25 1z m340 5 c0 -11 -19 -15 -25 -6 -3 5 1 10 9 10 9 0 16 -2 16 -4z
m-1270 -65 c0 -5 -9 -11 -19 -14 -14 -3 -18 -1 -14 9 6 15 33 19 33 5z m740
-1 c-19 -13 -30 -13 -30 0 0 6 10 10 23 10 18 0 19 -2 7 -10z m310 0 c0 -5 -7
-10 -16 -10 -8 0 -12 5 -9 10 3 6 10 10 16 10 5 0 9 -4 9 -10z m-755 -20 c3
-5 15 -10 26 -10 10 0 19 -7 19 -15 0 -27 -53 -19 -67 10 -9 20 -8 25 2 25 8
0 17 -4 20 -10z m275 -15 c1 -12 -35 -19 -57 -11 -12 5 -13 9 -4 20 13 15 60
8 61 -9z m190 21 c0 -3 -4 -8 -10 -11 -5 -3 -10 -1 -10 4 0 6 5 11 10 11 6 0
10 -2 10 -4z m-999 -43 c12 -15 12 -16 -4 -10 -10 4 -23 7 -28 7 -5 0 -9 5 -9
10 0 16 26 12 41 -7z m147 -30 c5 -18 -10 -16 -34 2 -18 15 -18 15 5 13 14 -2
26 -9 29 -15z m1258 8 c-7 -11 -56 -21 -56 -11 0 13 13 20 37 20 13 0 22 -4
19 -9z m-876 -21 c0 -5 -4 -10 -10 -10 -5 0 -10 5 -10 10 0 6 5 10 10 10 6 0
10 -4 10 -10z m470 0 c0 -5 -7 -10 -16 -10 -8 0 -12 5 -9 10 3 6 10 10 16 10
5 0 9 -4 9 -10z m490 0 c-20 -13 -33 -13 -25 0 3 6 14 10 23 10 15 0 15 -2 2
-10z m-334 -16 c-3 -9 -6 -20 -6 -25 0 -5 -11 -3 -25 3 -19 9 -22 14 -14 25
17 19 53 17 45 -3z m-856 -20 c0 -2 -7 -4 -15 -4 -8 0 -15 4 -15 10 0 5 7 7
15 4 8 -4 15 -8 15 -10z m77 0 c-3 -3 -12 -4 -19 -1 -8 3 -5 6 6 6 11 1 17 -2
13 -5z m373 2 c0 -11 -19 -15 -25 -6 -3 5 1 10 9 10 9 0 16 -2 16 -4z m450
-60 c0 -3 -4 -8 -10 -11 -5 -3 -10 -1 -10 4 0 6 5 11 10 11 6 0 10 -2 10 -4z
m-510 -32 c0 -2 -14 -4 -31 -4 -16 0 -28 4 -25 9 5 8 56 3 56 -5z m173 -1 c-7
-2 -21 -2 -30 0 -10 3 -4 5 12 5 17 0 24 -2 18 -5z"/>
<path d="M2029 2896 c-3 -3 -19 -8 -35 -10 -16 -2 -48 -9 -72 -16 -38 -12 -42
-16 -40 -44 1 -17 5 -39 10 -48 6 -13 5 -18 -7 -18 -8 0 -14 3 -14 8 3 15 -14
72 -21 72 -4 0 -27 -7 -51 -15 -41 -14 -57 -21 -116 -48 -34 -16 -89 -64 -81
-72 10 -10 68 17 61 29 -4 5 1 7 11 3 10 -4 20 -7 22 -7 3 0 2 -4 -1 -10 -3
-5 -15 -10 -26 -10 -10 0 -19 -7 -19 -15 0 -13 -7 -15 -35 -9 -33 6 -36 4 -50
-29 -17 -41 -10 -71 24 -101 27 -24 46 -10 56 42 4 20 20 57 37 81 26 39 28
48 18 66 -13 20 -12 20 8 2 11 -11 25 -16 31 -13 23 15 113 25 131 16 11 -6
37 -11 58 -13 22 -1 47 -8 55 -16 9 -7 22 -11 29 -8 8 3 2 10 -14 17 -21 10
-28 21 -28 41 0 15 -7 29 -16 33 -25 9 -27 8 -20 -19 5 -19 3 -23 -9 -19 -9 4
-15 14 -13 24 2 9 -3 24 -10 33 -8 9 -9 18 -4 21 6 3 15 -1 22 -9 17 -21 33
-19 26 3 -5 14 -4 14 9 -2 8 -11 15 -24 15 -29 0 -13 130 0 147 15 9 7 13 7
13 -1 0 -6 15 -11 33 -11 17 0 51 -9 75 -20 43 -19 43 -20 40 -67 -3 -43 -6
-48 -33 -56 -16 -5 -45 -13 -64 -19 -30 -9 -38 -7 -84 25 -53 37 -81 41 -37 5
67 -53 79 -66 98 -103 11 -22 29 -49 41 -59 28 -25 27 -17 -4 24 -30 41 -31
54 -5 80 19 19 30 20 113 16 57 -3 76 -2 50 3 -41 7 -61 17 -52 25 2 2 31 0
64 -5 76 -10 89 -1 82 60 -4 38 -13 53 -51 89 l-46 43 -31 -30 c-17 -17 -36
-31 -42 -31 -6 0 4 15 22 34 l33 34 -49 16 c-48 17 -243 34 -254 22z m-2 -38
c-3 -8 -6 -5 -6 6 -1 11 2 17 5 13 3 -3 4 -12 1 -19z m90 -10 c-3 -7 -5 -2 -5
12 0 14 2 19 5 13 2 -7 2 -19 0 -25z m53 13 c-10 -20 -30 -37 -30 -26 0 11 25
45 33 45 4 0 3 -9 -3 -19z m53 -9 c-3 -12 -9 -22 -14 -22 -5 0 -3 11 3 25 13
30 20 28 11 -3z m-226 -19 c-3 -10 -5 -4 -5 12 0 17 2 24 5 18 2 -7 2 -21 0
-30z m273 2 c-7 -8 -17 -15 -23 -15 -5 0 -2 9 8 20 21 23 35 19 15 -5z m-440
-57 c0 -6 -7 -5 -15 2 -8 7 -15 17 -15 22 0 6 7 5 15 -2 8 -7 15 -17 15 -22z
m540 2 c-14 -11 -38 -20 -54 -20 -36 0 -32 5 19 23 56 20 64 20 35 -3z m-610
-28 c-15 -5 -41 18 -34 30 3 5 15 1 26 -9 11 -10 15 -19 8 -21z m655 -1 c-6
-5 -23 -13 -40 -16 -29 -7 -29 -7 -10 8 21 17 66 24 50 8z m-5 -51 c-20 -13
-70 -13 -70 0 0 6 19 10 43 10 31 0 38 -3 27 -10z m-793 -36 c-3 -3 -12 -4
-19 -1 -8 3 -5 6 6 6 11 1 17 -2 13 -5z m18 -24 c3 -5 -3 -10 -14 -10 -12 0
-24 0 -28 -1 -4 0 -9 4 -11 10 -5 14 45 15 53 1z m-18 -36 c-3 -3 -12 -4 -19
-1 -8 3 -5 6 6 6 11 1 17 -2 13 -5z"/>
<path d="M3060 2802 c16 -16 32 -45 35 -65 4 -21 12 -37 18 -37 7 0 7 -4 -1
-12 -15 -15 -16 -72 -2 -63 6 3 10 1 10 -4 0 -6 -4 -11 -10 -11 -15 0 -23 -46
-11 -67 9 -15 10 -14 11 13 0 17 7 37 15 44 43 36 -25 230 -81 230 -7 0 0 -13
16 -28z"/>
<path d="M2997 2803 c-4 -3 -7 -30 -7 -60 0 -38 -7 -68 -26 -104 -31 -58 -23
-78 21 -55 21 11 34 12 48 4 21 -11 35 1 38 32 1 8 3 26 5 40 6 44 -6 89 -32
120 -26 31 -35 35 -47 23z m53 -128 c10 -12 10 -19 2 -27 -15 -15 -48 14 -38
31 10 15 21 14 36 -4z"/>
<path d="M1996 2771 c-14 -5 -16 -10 -8 -15 7 -4 17 -4 22 -1 6 3 10 1 10 -4
0 -6 4 -11 9 -11 5 0 37 -19 70 -42 47 -32 64 -39 73 -30 7 7 20 12 29 12 27
0 73 44 66 63 -11 29 -212 49 -271 28z m234 -24 c0 -2 -10 -12 -22 -23 l-23
-19 19 23 c18 21 26 27 26 19z"/>
<path d="M1340 2650 c0 -5 5 -10 10 -10 6 0 10 5 10 10 0 6 -4 10 -10 10 -5 0
-10 -4 -10 -10z"/>
<path d="M1865 2535 c-43 -15 -95 -68 -95 -97 0 -27 -1 -31 -16 -53 -19 -26
-18 -39 2 -31 12 5 15 2 10 -10 -3 -8 -6 -19 -6 -22 0 -4 -5 0 -10 8 -6 10
-12 11 -18 5 -23 -25 -65 -202 -51 -211 5 -3 9 3 9 13 1 10 6 31 13 47 11 26
14 27 26 12 12 -14 12 -16 -3 -10 -16 6 -17 2 -20 -86 -1 -33 19 -23 25 12 l6
33 2 -33 c1 -42 22 -38 35 5 6 23 16 32 37 37 19 4 30 13 35 30 4 17 14 25 37
29 18 2 35 0 39 -6 10 -16 78 40 80 66 3 43 -4 72 -19 90 -20 21 -35 21 -73 2
-41 -21 -39 -39 2 -31 30 6 31 5 13 -8 -23 -18 -45 -20 -45 -6 0 6 -9 10 -19
10 -10 0 -21 7 -25 15 -8 21 -21 19 -35 -7 -11 -21 -11 -21 -5 7 7 38 10 41
30 24 14 -12 20 -9 46 20 16 18 26 36 23 39 -4 4 -12 -1 -19 -11 -17 -23 -29
-22 -17 2 6 10 7 21 4 25 -3 3 0 6 8 6 20 0 66 50 71 75 4 26 -23 29 -77 10z
m-17 -65 c-15 -23 -38 -34 -38 -18 0 11 29 37 43 38 4 0 2 -9 -5 -20z m112
-175 c-8 -10 -7 -16 7 -24 23 -13 12 -14 -21 -1 -28 10 -35 30 -11 30 8 0 15
5 15 11 0 5 5 7 10 4 8 -5 8 -11 0 -20z m-155 -15 c10 -11 16 -20 13 -20 -3 0
-13 9 -23 20 -10 11 -16 20 -13 20 3 0 13 -9 23 -20z"/>
<path d="M1960 2540 c0 -5 5 -10 10 -10 6 0 10 5 10 10 0 6 -4 10 -10 10 -5 0
-10 -4 -10 -10z"/>
<path d="M1358 2533 c7 -3 16 -2 19 1 4 3 -2 6 -13 5 -11 0 -14 -3 -6 -6z"/>
<path d="M2010 2513 c-48 -33 -62 -51 -58 -75 2 -15 10 -23 23 -23 14 0 19 6
17 19 -2 11 1 15 7 11 6 -3 11 -12 11 -19 0 -7 7 -28 17 -46 9 -19 19 -47 22
-64 7 -34 12 -31 56 37 25 37 25 39 9 87 -9 27 -25 57 -36 67 -19 17 -20 17
-35 -2 -15 -20 -15 -19 -8 3 8 27 6 27 -25 5z"/>
<path d="M1384 2455 c-3 -14 -4 -32 0 -40 12 -32 -15 -13 -28 20 -13 30 -18
34 -38 26 -30 -11 -108 -146 -108 -187 0 -8 -4 -14 -8 -14 -10 0 -32 -59 -32
-85 0 -15 6 -17 45 -12 32 3 45 1 42 -7 -2 -6 -14 -13 -28 -14 -41 -6 -46 -20
-16 -48 16 -14 26 -29 23 -32 -3 -3 -15 7 -27 21 -22 29 -45 36 -35 12 3 -8 1
-15 -4 -15 -16 0 -7 -63 12 -82 24 -24 26 -23 20 8 -3 17 -1 25 5 21 6 -4 13
-21 17 -38 3 -18 11 -38 17 -46 15 -18 39 -17 39 3 0 8 -4 12 -10 9 -6 -3 -7
1 -4 9 3 9 10 16 14 16 5 0 10 12 12 27 2 14 8 28 14 30 7 2 9 -19 6 -66 -3
-67 -3 -69 28 -91 29 -21 33 -21 48 -6 15 15 15 16 -1 16 -11 0 -17 8 -17 24
0 16 -7 27 -20 31 -11 3 -20 14 -20 22 0 13 5 12 25 -7 19 -17 31 -21 55 -17
30 6 31 6 28 -28 -3 -45 12 -61 40 -44 12 7 26 24 33 37 13 23 13 23 21 3 10
-28 46 -27 57 2 10 27 -4 57 -29 64 -11 3 -16 11 -13 20 3 8 12 12 20 9 19 -8
43 17 43 44 0 32 -19 62 -36 56 -8 -3 -14 -1 -14 4 0 15 -17 12 -34 -6 -11
-10 -14 -24 -9 -42 3 -15 6 -31 5 -37 -1 -5 -3 -21 -5 -34 -3 -23 -33 -48 -44
-37 -4 3 -1 6 5 6 7 0 9 10 6 28 -3 15 -6 43 -7 62 -2 28 -6 35 -22 35 -15 0
-24 -12 -35 -45 -20 -59 -27 -70 -50 -70 -28 0 -32 14 -15 54 25 60 21 70 -25
62 -48 -7 -60 9 -36 46 15 23 15 26 -7 46 -13 12 -27 19 -30 15 -11 -11 -8 31
4 47 9 13 10 12 5 -2 -7 -23 9 -32 24 -13 19 23 28 18 44 -20 15 -36 42 -46
52 -20 4 8 1 21 -5 29 -6 7 -14 34 -17 60 -6 42 -5 46 14 46 16 0 24 -9 31
-37 6 -21 11 -43 11 -49 0 -15 35 -46 43 -37 4 3 7 15 7 25 0 10 8 30 17 45
16 23 17 24 24 7 4 -11 8 -31 8 -45 1 -14 9 -33 19 -43 18 -15 20 -15 35 2 10
10 17 28 17 40 0 13 6 22 15 22 9 0 15 -9 15 -25 0 -28 15 -34 24 -9 6 16 -27
84 -56 116 -10 10 -18 27 -18 39 0 11 -4 17 -10 14 -6 -4 -8 -16 -4 -27 9 -29
-16 -41 -39 -20 -14 13 -20 14 -26 3 -6 -10 -10 -9 -15 5 -8 22 -3 27 31 28
21 1 30 8 37 29 9 25 7 31 -14 48 -50 37 -87 14 -54 -35 15 -24 15 -26 0 -20
-9 3 -16 11 -16 17 0 16 -17 -4 -24 -28 -3 -11 -4 1 -2 27 2 26 -1 51 -7 57
-18 18 -36 12 -43 -14z m-61 -173 c29 -25 19 -34 -13 -10 -16 12 -30 26 -30
30 0 10 16 2 43 -20z"/>
<path d="M2228 2387 c-20 -16 -26 -28 -22 -43 3 -12 1 -25 -5 -28 -20 -13 -11
-26 17 -26 29 0 62 26 62 49 0 8 -6 11 -17 7 -16 -6 -16 -6 0 12 20 22 22 52
5 52 -7 -1 -25 -11 -40 -23z m22 -66 c0 -5 -7 -11 -15 -15 -15 -5 -20 5 -8 17
9 10 23 9 23 -2z"/>
<path d="M1380 2285 c0 -11 5 -27 10 -35 8 -12 10 -12 10 5 0 11 -5 27 -10 35
-8 12 -10 12 -10 -5z"/>
<path d="M2090 2284 c0 -8 5 -12 10 -9 6 3 10 10 10 16 0 5 -4 9 -10 9 -5 0
-10 -7 -10 -16z"/>
<path d="M2389 2293 c-1 -5 -1 -12 0 -16 1 -5 -3 -5 -9 -2 -7 4 -21 -2 -33
-13 -26 -25 -69 -42 -103 -42 -37 0 -84 -28 -84 -50 0 -78 174 -63 245 22 27
32 33 63 13 71 -10 4 -9 6 1 6 11 1 11 4 1 16 -13 16 -29 20 -31 8z"/>
<path d="M2117 2284 c-3 -3 -3 -12 0 -20 3 -8 -1 -14 -11 -14 -9 0 -16 -7 -16
-15 0 -8 -4 -15 -10 -15 -5 0 -10 -5 -10 -11 0 -8 4 -8 13 -1 7 6 22 9 34 6
11 -3 24 -1 27 5 4 6 18 11 31 11 13 0 27 5 30 10 3 6 -3 10 -14 10 -11 0 -25
9 -31 20 -10 19 -31 26 -43 14z m33 -44 c0 -5 -4 -10 -10 -10 -5 0 -10 5 -10
10 0 6 5 10 10 10 6 0 10 -4 10 -10z"/>
<path d="M2047 2263 c-4 -3 -7 -13 -7 -22 1 -13 3 -13 11 2 11 19 8 33 -4 20z"/>
<path d="M1488 2224 c-5 -4 -8 -15 -8 -25 0 -24 -24 -30 -49 -13 -19 14 -21
13 -21 -4 0 -18 -18 -32 -42 -32 -5 0 -23 14 -39 31 -16 17 -29 27 -29 22 0
-16 43 -75 60 -83 8 -4 25 -12 38 -19 17 -9 27 -8 42 1 16 10 24 10 40 0 16
-10 20 -10 20 2 0 13 19 22 85 42 16 5 31 17 33 26 3 16 1 16 -29 1 -43 -21
-82 -8 -89 31 -3 15 -8 24 -12 20z"/>
<path d="M1957 2192 c-26 -28 -22 -52 4 -25 12 11 20 26 17 33 -2 7 -9 5 -21
-8z"/>
<path d="M2045 2180 c-3 -5 -1 -10 4 -10 6 0 11 5 11 10 0 6 -2 10 -4 10 -3 0
-8 -4 -11 -10z"/>
<path d="M2020 2134 c0 -9 7 -14 17 -12 24 4 27 23 3 25 -12 1 -20 -4 -20 -13z"/>
<path d="M1985 2129 c-4 -6 -5 -12 -2 -15 2 -3 7 2 10 11 7 17 1 20 -8 4z"/>
<path d="M1307 2124 c-4 -4 -4 -10 -1 -15 6 -10 34 0 34 12 0 10 -24 12 -33 3z"/>
<path d="M1898 2123 c-10 -2 -18 -9 -18 -14 0 -14 16 -11 30 6 7 8 11 14 9 14
-2 -1 -12 -3 -21 -6z"/>
<path d="M1672 2075 c0 -16 2 -22 5 -12 2 9 2 23 0 30 -3 6 -5 -1 -5 -18z"/>
<path d="M1925 2067 c-22 -19 -34 -36 -28 -40 10 -7 80 59 71 68 -2 3 -22 -10
-43 -28z"/>
<path d="M1758 2072 c-11 -2 -18 -13 -18 -27 0 -13 -4 -27 -10 -30 -5 -3 -10
3 -10 15 0 32 -24 19 -29 -16 l-4 -29 -7 25 c-8 24 -8 23 -9 -7 -1 -17 4 -35
9 -38 16 -10 12 -28 -5 -21 -11 4 -15 -2 -15 -24 0 -40 18 -38 35 4 8 18 20
36 27 39 15 5 61 93 56 105 -2 4 -11 6 -20 4z"/>
<path d="M1805 2024 c-9 -23 -19 -33 -26 -28 -9 5 -10 2 -6 -10 5 -12 0 -19
-18 -26 -14 -5 -26 -13 -27 -17 -4 -23 -10 -73 -13 -109 -1 -23 -5 -58 -9 -78
-7 -35 12 -133 21 -108 11 28 23 -3 23 -58 0 -32 4 -62 10 -65 6 -4 8 48 5
149 -5 134 -3 159 11 181 9 14 14 31 11 39 -3 7 0 19 6 25 8 8 8 11 -1 11 -7
0 -12 -4 -12 -10 0 -5 -7 -10 -15 -10 -22 0 -18 17 6 23 12 3 18 10 15 15 -3
5 2 9 11 8 20 -1 43 39 43 77 0 38 -17 34 -35 -9z"/>
<path d="M1375 2019 c-4 -11 -4 -23 0 -27 7 -7 25 17 25 36 0 20 -18 14 -25
-9z"/>
<path d="M942 1970 c14 -19 33 -34 42 -32 10 2 16 -4 16 -17 0 -23 27 -41 63
-41 22 0 24 4 20 35 -4 44 11 46 26 3 8 -23 8 -34 0 -38 -7 -5 -5 -9 6 -14 26
-10 28 -8 22 24 -5 22 -3 30 8 30 8 0 15 -9 15 -20 0 -11 5 -20 10 -20 6 0 10
-6 10 -14 0 -8 7 -17 16 -20 23 -9 26 -8 17 7 -4 6 -8 20 -8 30 0 12 -20 29
-55 49 -30 17 -66 38 -80 48 -31 22 -110 23 -110 1 0 -11 -5 -10 -22 5 -19 16
-19 14 4 -16z m108 -20 c0 -11 -2 -20 -5 -20 -2 0 -9 9 -15 20 -9 16 -8 20 5
20 8 0 15 -9 15 -20z m-5 -40 c3 -5 1 -10 -4 -10 -6 0 -11 5 -11 10 0 6 2 10
4 10 3 0 8 -4 11 -10z"/>
<path d="M1230 1856 c0 -26 27 -43 43 -27 7 7 5 17 -8 31 -24 26 -35 25 -35
-4z"/>
<path d="M1305 1820 c-7 -12 18 -24 37 -18 8 3 5 9 -9 16 -14 8 -24 9 -28 2z"/>
<path d="M1650 1774 c0 -29 15 -31 30 -5 13 26 13 27 -10 28 -15 1 -20 -4 -20
-23z"/>
<path d="M1850 1781 c-7 -14 -4 -38 15 -95 14 -42 25 -86 25 -96 0 -17 5 -19
25 -14 15 4 25 2 25 -5 0 -6 -7 -11 -16 -11 -11 0 -14 -6 -9 -21 5 -15 2 -22
-14 -26 -32 -8 -26 -34 7 -32 15 1 42 -1 60 -5 30 -7 32 -6 32 18 0 14 -12 55
-26 92 -24 59 -29 65 -50 60 -18 -5 -24 -2 -24 10 0 10 5 14 15 10 8 -3 15 -1
15 4 0 4 -13 11 -30 15 -30 7 -42 25 -17 25 25 0 36 21 26 49 -17 43 -42 52
-59 22z m48 -39 c2 -7 -6 -12 -17 -12 -21 0 -27 11 -14 24 9 9 26 2 31 -12z
m40 -133 c-2 -6 -8 -10 -13 -10 -5 0 -11 4 -13 10 -2 6 4 11 13 11 9 0 15 -5
13 -11z"/>
<path d="M1255 1770 c-18 -20 -18 -22 13 -88 39 -84 51 -129 54 -215 2 -57 5
-68 18 -64 18 5 25 -30 11 -48 -11 -13 -12 -145 -1 -145 15 0 32 30 27 50 -3
11 -1 20 4 20 5 0 9 -4 9 -9 0 -6 12 -3 28 5 15 7 41 14 58 14 17 0 37 7 44
15 14 16 47 20 68 6 19 -12 9 -78 -15 -103 -12 -11 -48 -26 -87 -34 -75 -16
-146 -48 -146 -67 0 -6 3 -22 6 -34 6 -21 7 -22 33 -5 14 9 42 29 61 44 51 40
92 46 127 18 l28 -22 8 34 c12 51 18 359 7 393 -7 26 -9 21 -8 -30 0 -33 -5
-73 -11 -89 -8 -20 -9 -32 -1 -40 13 -13 13 -36 0 -36 -5 0 -10 10 -10 23 l-1
22 -20 -24 c-16 -19 -22 -22 -29 -12 -5 9 -17 11 -34 7 -15 -4 -24 -11 -21
-16 3 -6 1 -18 -4 -27 -6 -10 -11 -13 -11 -8 0 6 -15 12 -32 13 -46 4 -61 22
-49 55 6 15 18 27 27 27 14 0 15 13 11 114 -6 115 -7 120 -58 205 -20 33 -20
49 0 37 17 -11 81 -148 81 -174 0 -24 1 -25 20 -7 18 16 18 19 4 47 -21 41
-11 78 21 78 13 0 27 -4 30 -10 8 -13 25 -13 25 0 0 8 -82 70 -94 70 -3 0 -2
-8 1 -17 6 -14 2 -14 -23 4 -16 12 -48 24 -69 28 -22 3 -49 8 -61 10 -13 3
-28 -3 -39 -15z m58 -37 c34 -78 47 -130 47 -190 0 -34 -4 -65 -10 -68 -6 -4
-10 16 -10 54 0 52 -24 150 -55 224 -4 9 -3 17 2 17 6 0 17 -17 26 -37z m88
-281 c-5 -17 -10 -22 -15 -14 -4 7 -5 15 -3 20 3 4 1 31 -2 60 -4 29 -5 55 -2
58 11 10 29 -96 22 -124z"/>
<path d="M1650 1702 c0 -18 4 -31 9 -27 16 9 19 -23 20 -179 0 -82 3 -151 6
-154 3 -3 5 18 5 47 0 36 3 50 11 45 16 -9 5 -114 -14 -151 -9 -15 -23 -69
-31 -120 -9 -50 -19 -99 -22 -107 -3 -9 -2 -16 4 -16 5 0 13 17 17 37 6 33 8
36 19 21 15 -21 35 -6 37 26 1 17 2 18 6 4 8 -30 21 -20 28 20 20 120 30 292
16 292 -6 0 -11 14 -11 30 0 17 -4 30 -10 30 -5 0 -10 -9 -10 -20 0 -19 -1
-19 -18 -2 -10 9 -14 19 -10 20 8 4 4 100 -8 197 -4 32 -9 41 -24 41 -16 0
-20 -7 -20 -34z m76 -430 c-12 -11 -13 4 -7 63 l6 60 3 -59 c2 -32 1 -61 -2
-64z"/>
<path d="M1816 1532 c-4 -125 -3 -198 3 -210 12 -19 13 -15 15 43 1 34 5 41
24 43 17 3 22 9 20 25 -2 14 -10 21 -21 21 -19 -2 -24 30 -6 41 5 4 9 17 7 28
-1 12 0 27 4 32 8 13 -6 91 -25 136 -13 31 -14 19 -21 -159z"/>
<path d="M1470 1667 c0 -7 7 -22 16 -33 13 -16 15 -16 10 -2 -3 10 -1 20 5 23
5 4 7 11 4 16 -9 14 -35 11 -35 -4z"/>
<path d="M1560 1644 c0 -5 7 -19 15 -30 8 -10 15 -14 15 -8 0 5 -7 19 -15 30
-8 10 -15 14 -15 8z"/>
<path d="M1516 1611 c-4 -5 -2 -12 3 -15 5 -4 12 -2 15 3 4 5 2 12 -3 15 -5 4
-12 2 -15 -3z"/>
<path d="M1721 1570 c0 -19 4 -42 9 -50 7 -11 10 -8 9 15 0 17 -4 39 -9 50 -7
16 -9 14 -9 -15z"/>
<path d="M1552 1571 c-6 -16 -11 -20 -16 -13 -9 15 -29 16 -24 1 2 -6 18 -17
36 -25 30 -12 32 -12 32 9 0 12 -5 29 -10 37 -7 12 -11 10 -18 -9z"/>
<path d="M1458 1549 c-19 -33 -24 -109 -8 -109 19 0 53 86 46 114 -8 34 -17
33 -38 -5z"/>
<path d="M1518 1493 c-9 -10 -21 -29 -28 -42 -12 -23 -11 -23 16 -17 l29 7
-24 -20 c-14 -10 -31 -17 -38 -14 -12 5 -31 -23 -22 -32 2 -2 29 2 59 9 44 10
56 17 58 34 3 16 -1 20 -12 16 -9 -3 -16 -1 -16 5 0 7 7 14 15 17 20 8 19 24
-1 24 -10 0 -14 6 -10 15 7 20 -7 19 -26 -2z m22 -33 c0 -5 -4 -10 -10 -10 -5
0 -10 5 -10 10 0 6 5 10 10 10 6 0 10 -4 10 -10z"/>
<path d="M1913 1435 c-17 -19 -16 -25 2 -25 8 0 15 9 15 20 0 23 -1 24 -17 5z"/>
<path d="M1950 1390 c-14 -4 -42 -8 -63 -9 -35 -1 -37 -3 -31 -26 4 -14 7 -40
8 -58 2 -27 5 -32 26 -30 14 1 43 -5 64 -13 32 -12 41 -13 52 -2 15 16 26 126
13 134 -5 3 -9 -2 -9 -10 0 -20 -32 -37 -50 -26 -8 5 -11 12 -7 17 5 4 12 2
16 -6 6 -10 10 -9 15 4 13 36 9 39 -34 25z m-27 -46 c20 -7 22 -20 5 -30 -6
-4 -14 -2 -16 4 -2 7 -10 12 -18 12 -8 0 -14 7 -14 16 0 9 5 13 13 10 6 -3 20
-9 30 -12z m71 -25 c-3 -5 -11 -9 -19 -9 -7 0 -16 -7 -19 -16 -3 -8 -10 -12
-16 -9 -17 11 18 54 40 48 11 -3 17 -9 14 -14z m-94 -29 c0 -5 -2 -10 -4 -10
-3 0 -8 5 -11 10 -3 6 -1 10 4 10 6 0 11 -4 11 -10z m95 -10 c-3 -5 -11 -10
-16 -10 -6 0 -7 5 -4 10 3 6 11 10 16 10 6 0 7 -4 4 -10z"/>
<path d="M1415 1369 c-10 -15 3 -25 16 -12 7 7 7 13 1 17 -6 3 -14 1 -17 -5z"/>
<path d="M1533 1282 c-18 -8 -34 -25 -38 -39 -7 -28 -42 -28 -37 0 4 26 -21
20 -51 -11 -26 -27 -36 -49 -18 -38 5 4 11 1 13 -6 4 -10 11 -10 34 1 16 8 36
13 45 12 9 -1 19 5 23 14 4 12 10 14 25 5 16 -8 22 -6 31 10 6 12 10 31 8 44
-3 23 -4 23 -35 8z m21 -27 c-4 -8 -15 -15 -26 -15 -17 0 -18 3 -8 15 7 8 19
15 26 15 8 0 11 -6 8 -15z m-114 -40 c0 -8 -7 -15 -15 -15 -8 0 -15 7 -15 15
0 8 7 15 15 15 8 0 15 -7 15 -15z"/>
<path d="M1812 1270 c0 -14 2 -19 5 -12 2 6 2 18 0 25 -3 6 -5 1 -5 -13z"/>
<path d="M1800 1219 c0 -11 5 -17 10 -14 6 3 10 13 10 21 0 8 -4 14 -10 14 -5
0 -10 -9 -10 -21z"/>
<path d="M1917 1220 c3 -11 13 -20 22 -19 10 0 11 2 4 6 -7 2 -13 11 -13 19 0
8 -4 14 -9 14 -5 0 -7 -9 -4 -20z"/>
<path d="M1797 1180 c-3 -8 -5 -22 -5 -30 0 -8 -12 -73 -26 -144 -18 -85 -24
-132 -18 -138 7 -7 13 6 17 38 4 27 11 63 15 79 5 17 12 55 16 85 4 30 11 57
15 60 5 3 5 19 0 35 -6 20 -10 25 -14 15z"/>
<path d="M1908 1164 c-5 -4 -8 -12 -8 -18 0 -6 5 -5 12 2 18 18 30 14 23 -7
-6 -21 15 -34 40 -25 18 7 20 -7 4 -23 -8 -8 -6 -14 9 -22 18 -9 20 -6 26 36
3 25 4 48 1 51 -8 9 -100 14 -107 6z m72 -14 c0 -5 -5 -10 -11 -10 -5 0 -7 5
-4 10 3 6 8 10 11 10 2 0 4 -4 4 -10z"/>
<path d="M1857 1143 c-27 -45 -23 -123 5 -95 16 16 69 15 92 -3 25 -19 36 -19
36 0 0 8 -9 15 -20 15 -11 0 -20 7 -20 15 0 12 -7 14 -26 9 -25 -7 -27 -5 -20
22 7 28 7 28 -13 10 -25 -23 -40 -13 -23 14 7 11 8 20 3 20 -6 0 -12 -3 -14
-7z m13 -68 c0 -8 -4 -15 -10 -15 -5 0 -10 7 -10 15 0 8 5 15 10 15 6 0 10 -7
10 -15z"/>
<path d="M1430 1075 c-114 -80 -105 -110 20 -66 37 13 61 28 72 48 47 75 1 84
-92 18z m90 26 c0 -12 -20 -25 -27 -18 -7 7 6 27 18 27 5 0 9 -4 9 -9z m-48
-33 c-6 -6 -8 -17 -5 -24 3 -8 -1 -14 -10 -14 -24 0 -18 46 6 47 14 2 17 -1 9
-9z m38 -2 c0 -3 -4 -8 -10 -11 -5 -3 -10 -1 -10 4 0 6 5 11 10 11 6 0 10 -2
10 -4z m-89 -25 c-7 -5 -10 -14 -7 -20 4 -6 0 -11 -8 -11 -9 0 -16 5 -16 11 0
13 33 40 40 33 2 -3 -2 -9 -9 -13z"/>
<path d="M1574 1068 c-6 -28 -8 -30 -14 -13 -5 13 -9 3 -13 -35 -4 -35 -13
-60 -24 -68 -16 -12 -18 -10 -21 13 -3 26 -22 25 -22 -1 0 -18 38 -53 57 -54
7 0 15 12 18 28 3 15 10 41 15 57 13 44 23 105 17 105 -3 0 -9 -15 -13 -32z"/>
<path d="M1897 1034 c-10 -10 -9 -54 2 -54 12 0 22 43 13 52 -5 5 -11 5 -15 2z"/>
<path d="M1800 1015 c0 -8 9 -15 19 -15 26 0 35 16 15 24 -25 10 -34 7 -34 -9z"/>
<path d="M1930 1005 c0 -8 2 -15 4 -15 2 0 6 7 10 15 3 8 1 15 -4 15 -6 0 -10
-7 -10 -15z"/>
<path d="M1517 1003 c-4 -3 -7 -16 -6 -27 0 -19 1 -19 10 3 10 24 8 36 -4 24z"/>
<path d="M1457 987 c-11 -29 -9 -43 4 -30 6 6 9 19 7 29 -3 18 -4 18 -11 1z"/>
<path d="M1807 974 c-4 -4 -7 -20 -7 -36 0 -16 -5 -38 -11 -49 -12 -24 3 -49
30 -49 9 0 38 -11 64 -25 49 -27 67 -26 67 3 0 9 7 30 15 46 24 46 20 75 -12
81 -50 10 -108 24 -124 30 -8 3 -18 2 -22 -1z m35 -42 c-4 -26 10 -29 28 -7
21 25 35 2 21 -33 -9 -21 -19 -30 -34 -29 -12 0 -30 -3 -39 -7 -22 -10 -24 12
-4 40 10 13 11 23 4 31 -12 14 -1 36 15 30 7 -2 11 -14 9 -25z m108 -16 c0
-18 -16 -29 -30 -21 -13 8 -1 35 16 35 8 0 14 -6 14 -14z m-10 -57 c0 -5 -7
-9 -15 -9 -15 0 -20 12 -9 23 8 8 24 -1 24 -14z"/>
<path d="M1370 950 c0 -11 5 -20 10 -20 6 0 10 9 10 20 0 11 -4 20 -10 20 -5
0 -10 -9 -10 -20z"/>
<path d="M1408 945 c-4 -17 -1 -25 8 -25 8 0 14 11 14 25 0 14 -4 25 -9 25 -5
0 -11 -11 -13 -25z"/>
<path d="M1338 919 c-7 -41 -3 -46 17 -29 18 15 19 21 1 45 -12 17 -14 16 -18
-16z"/>
<path d="M1430 900 c-13 -8 -12 -10 3 -10 9 0 17 5 17 10 0 12 -1 12 -20 0z"/>
<path d="M1475 890 c-4 -14 -15 -20 -34 -20 -15 0 -36 -8 -45 -19 -16 -18 -16
-19 15 -30 57 -20 62 -16 79 57 8 34 -4 45 -15 12z m-21 -57 c-13 -10 -20 -10
-23 -2 -4 14 19 30 33 22 5 -3 1 -12 -10 -20z"/>
<path d="M1369 873 c-28 -17 -36 -63 -10 -63 9 0 11 7 8 21 -4 15 1 22 19 29
13 5 24 14 24 20 0 14 -11 12 -41 -7z"/>
<path d="M1298 843 c-10 -2 -18 -8 -18 -13 0 -10 38 -1 46 11 5 9 1 10 -28 2z"/>
<path d="M1731 828 c-11 -28 -12 -27 21 -21 24 4 25 7 15 24 -16 25 -26 24
-36 -3z"/>
<path d="M1244 819 c-11 -19 10 -27 51 -19 39 7 39 8 8 9 -18 0 -33 6 -33 11
0 13 -17 13 -26 -1z"/>
<path d="M1835 790 c-3 -5 -3 -15 1 -21 6 -11 23 6 24 24 0 10 -18 9 -25 -3z"/>
<path d="M1366 765 c-9 -14 -21 -23 -26 -20 -6 4 -10 1 -10 -6 0 -7 12 -9 38
-5 20 3 46 7 57 8 11 2 21 12 24 23 3 17 1 18 -13 6 -14 -11 -16 -11 -16 3 0
25 -36 19 -54 -9z m34 0 c0 -8 -4 -15 -10 -15 -5 0 -7 7 -4 15 4 8 8 15 10 15
2 0 4 -7 4 -15z"/>
<path d="M1747 783 c-4 -3 -7 -25 -7 -47 0 -23 -7 -51 -15 -63 -13 -19 -13
-22 1 -27 9 -3 25 -6 37 -6 11 0 30 -8 41 -19 45 -41 61 -36 90 24 15 30 25
59 21 64 -3 6 -21 13 -40 17 -19 3 -51 19 -71 35 -38 30 -46 33 -57 22z m50
-48 c3 -9 3 -18 1 -21 -9 -9 -38 8 -38 22 0 19 29 18 37 -1z m91 -44 c3 -9 -2
-11 -16 -7 -15 5 -22 2 -27 -14 -8 -24 -30 -27 -39 -4 -5 14 -7 14 -22 0 -16
-17 -27 -20 -37 -10 -12 12 6 34 29 34 13 0 24 4 24 10 0 15 83 6 88 -9z m-38
-61 c0 -5 -4 -10 -10 -10 -5 0 -10 5 -10 10 0 6 5 10 10 10 6 0 10 -4 10 -10z"/>
<path d="M1310 765 c-7 -9 -11 -18 -8 -20 3 -3 11 1 18 10 7 9 11 18 8 20 -3
3 -11 -1 -18 -10z"/>
<path d="M1870 764 c0 -8 5 -12 10 -9 6 3 10 10 10 16 0 5 -4 9 -10 9 -5 0
-10 -7 -10 -16z"/>
<path d="M1905 760 c-3 -5 -1 -10 4 -10 6 0 11 5 11 10 0 6 -2 10 -4 10 -3 0
-8 -4 -11 -10z"/>
<path d="M1361 698 c4 -22 -12 -48 -30 -49 -12 0 -12 -2 4 -9 29 -13 32 -12
38 10 3 11 13 20 22 20 12 0 15 -5 10 -20 -7 -22 5 -26 23 -8 20 20 14 38 -13
38 -31 0 -33 17 -2 23 13 3 7 5 -16 6 -25 1 -37 -3 -36 -11z"/>
<path d="M1241 691 c-7 -5 -11 -13 -7 -19 8 -14 75 -21 73 -7 -1 5 4 9 11 8 6
-2 12 4 12 12 0 8 -9 15 -19 15 -10 0 -21 -7 -25 -15 -3 -8 -12 -15 -20 -15
-10 0 -13 6 -10 15 7 17 4 18 -15 6z"/>
</g>
</svg>
